STARTFONT 2.1
COMMENT
COMMENT Converted from OpenType font "Font 90 Icons.ttf" by "otf2bdf 3.0".
COMMENT
FONT -FreeType-Font 90 Icons-Medium-R-Normal--51-370-100-100-P-188-ISO10646-1
SIZE 37 100 100
FONTBOUNDINGBOX 54 52 0 -10
STARTPROPERTIES 19
FOUNDRY "FreeType"
FAMILY_NAME "Font 90 Icons"
WEIGHT_NAME "Medium"
SLANT "R"
SETWIDTH_NAME "Normal"
ADD_STYLE_NAME ""
PIXEL_SIZE 51
POINT_SIZE 370
RESOLUTION_X 100
RESOLUTION_Y 100
SPACING "P"
AVERAGE_WIDTH 188
CHARSET_REGISTRY "ISO10646"
CHARSET_ENCODING "1"
FONT_ASCENT 42
FONT_DESCENT 10
COPYRIGHT "Typeface © (el-harrak.blogspot.com). <darrati10@gmail.com>. All Rights Reserved"
_OTF_FONTFILE "Font 90 Icons.ttf"
_OTF_PSNAME "Font 90 Icons"
ENDPROPERTIES
CHARS 242
STARTCHAR 0000
ENCODING 0
SWIDTH 0 0
DWIDTH 0 0
BBX 0 0 0 0
BITMAP
ENDCHAR
STARTCHAR 001D
ENCODING 29
SWIDTH 0 0
DWIDTH 0 0
BBX 0 0 0 0
BITMAP
ENDCHAR
STARTCHAR 0020
ENCODING 32
SWIDTH 252 0
DWIDTH 13 0
BBX 0 0 0 0
BITMAP
ENDCHAR
STARTCHAR 0021
ENCODING 33
SWIDTH 972 0
DWIDTH 50 0
BBX 49 49 0 -8
BITMAP
000007F8000000
00007FFF800000
0003FFF3E00000
000FFFFE780000
001FFFFF0E0000
003FFFFFC70000
00FFFFFFC18000
01FFFFFFE0C000
03FFFFFFE06000
03FFFFFFF03000
07FFFE1FF01800
0FFFFC0FF00C00
1FFFFC0FF00C00
1FFFFC0FF00600
3FFFFC0FF00200
3FFFFC1FF00300
3FFFFFFFF00300
7FFFFFFFF00100
7FFFFFFFE00180
7FFFFFFFE00180
7FFFFFFFC00180
7FFFFFFF800080
FFFFFFFF000080
FFFFFFFC000080
FFFFFFE0000080
FFFFF800000080
FFFFE000000080
FFFF8000000080
7FFF0000000180
7FFF0000000180
7FFE0000000180
7FFC0000000180
7FFC0000000300
3FFC01E0000300
3FFC03F0000200
1FF803F0000600
1FF803F0000400
0FF803F0000C00
0FFC01E0001800
07FC0000003800
03FC0000007000
01FE000000E000
00FE000001C000
007F0000038000
003F8000070000
000FC0001C0000
0007F000F00000
0001FE1FC00000
00003FFE000000
ENDCHAR
STARTCHAR 0022
ENCODING 34
SWIDTH 972 0
DWIDTH 50 0
BBX 50 39 0 -3
BITMAP
00003FFF000000
00007FFF800000
00007803800000
00006001800000
00006001800000
00006001800000
00006001800000
3FFFFFFFFFFF00
7FFFFFFFFFFF80
7FFFFFFFFFFF80
7FFFFFFFFFFF80
FFFFFFFFFFFFC0
FFFFFFFFFFFFC0
FFFFFFFFFFFFC0
FFFFFFFFFFFFC0
FFFFFFFFFFFFC0
FFFFFFFFFFFFC0
FFFFFFFFFFFFC0
FFFFFFFFFFFFC0
FFFFFFFFFFFFC0
FFFFFFFFFFFFC0
FFFFFFFFFFFFC0
FFFFFFFFFFFFC0
FFFFFFFFFFFFC0
FFFFFFFFFFFFC0
FFFFFFFFFFFFC0
FFFFFFFFFFFFC0
FFFFFFFFFFFFC0
FFFFFFFFFFFFC0
FFFFFFFFFFFFC0
FFFFFFFFFFFFC0
FFFFFFFFFFFFC0
FFFFFFFFFFFFC0
FFFFFFFFFFFFC0
FFFFFFFFFFFFC0
FFFFFFFFFFFF80
7FFFFFFFFFFF80
7FFFFFFFFFFF80
3FFFFFFFFFFF00
ENDCHAR
STARTCHAR 0023
ENCODING 35
SWIDTH 972 0
DWIDTH 50 0
BBX 46 52 2 -10
BITMAP
0007FC000000
001FFFC00000
F87FFFF00000
F8FFFFFE0000
F9FFFFFFC0C0
FDFFFFFFFFE0
FDFFFFFFFFE0
7DFFFFFFFFE0
7CFFFFFFFFE0
7CFFFFFFFFE0
7CFFFFFFFFE0
7EFFFFFFFFE0
3EFFFFFFFFF0
3E7FFFFFFFF0
3E7FFFFFFFF0
3E7FFFFFFFF0
3F7FFFFFFFF0
3F7FFFFFFFF0
1F7FFFFFFFF8
1F3FFFFFFFF8
1F3FFFFFFFF8
1F3FFFFFFFF8
1FBFFFFFFFF8
1FBFFFFFFFF8
0F9FE007FFF8
0F9F0000FFFC
0F9C00003FFC
0F9800000FFC
0FC0000001FC
07C000000000
07C000000000
07C000000000
07C000000000
07E000000000
07E000000000
03E000000000
03E000000000
03E000000000
03E000000000
03F000000000
03F000000000
01F000000000
01F000000000
01F000000000
01F800000000
01F800000000
00F800000000
00F800000000
00F800000000
00F800000000
00FC00000000
007000000000
ENDCHAR
STARTCHAR 0024
ENCODING 36
SWIDTH 972 0
DWIDTH 50 0
BBX 49 49 0 -8
BITMAP
00E00000000000
03F80000000000
07FC0000000000
0FFC0000000000
1FFE0000000000
3FFF0000000000
7FFF8000000000
7FFFC000000000
FFFFE000000000
FFFFF000000000
7FFFFC00000000
7FFFFE00000000
3FFFFF00000000
1FFFFE80000000
0FFFFDE0000000
07FFFBF0000000
03FFF7F8000000
01FFEFFE000000
00FFDFFC000000
007FBFF8000000
003F7FF0000000
003EFFE0000000
001DFFC0000000
000BFF80000000
0007FF40000000
0007FEE0000000
0003FC70000000
0001F838000000
0000F01C000000
0000600E000000
00004007000000
00000003800000
00000001C00000
00000000E00000
00000000700000
00000000300000
00000000080000
00000000040000
00000000020000
00000000010000
00000000008000
00000000004000
00000000002000
00000000001000
00000000000800
00000000000400
00000000000200
00000000000100
00000000000080
ENDCHAR
STARTCHAR 0025
ENCODING 37
SWIDTH 972 0
DWIDTH 50 0
BBX 46 52 2 -10
BITMAP
00000FC00000
00001FC00000
00001FE00000
00001FE00000
00001FE00000
00007FF80000
0003FFFF0000
000FFFFFC000
001FFFFFE000
007FFFFFF800
00FFFFFFFC40
7FFFEFDFFFF8
FFFF0FC3FFFC
FFFE0F81FFFC
FFF80F807FFC
FFF007803FFC
FFF807807FFC
7FFC0700FFF8
3FFE0701FFF0
1FFF0303FFE0
3FFF8707FFF0
3FFFC78FFFF0
3F0FFFFF83F0
3F00FFFC03F0
3F003FF003F0
3F003FF003F0
3F003FF003F0
3F007FF003F0
3F01FFFE03F0
3F1FFFFFE7F0
3FFFC78FFFF0
3FFF8707FFE0
1FFE0783FFE0
7FFC0781FFF8
FFF80780FFFC
FFF007807FFC
FFF80F807FFC
FFFC0FC0FFFC
FFFE0FC1FFFC
7FFF8FC7FFF8
3CFFFFFFFCF0
007FFFFFF800
003FFFFFF000
001FFFFFE000
0007FFFF8000
0001FFFE0000
00003FF00000
00001FE00000
00001FE00000
00001FE00000
00000FC00000
000007800000
ENDCHAR
STARTCHAR 0026
ENCODING 38
SWIDTH 972 0
DWIDTH 50 0
BBX 49 49 0 -8
BITMAP
000007F8000000
00007FFF800000
0003FFFFE00000
0007F807F80000
001F8000FE0000
003E00001F0000
00F80000078000
01F01FFC03C000
03E07FFF81E000
03C1FFFFE0F000
0783FFFFF07800
0F07FFFFF83C00
0E0FFFFFFC1C00
1C1FFFFFFE1E00
1C3FFFFFFF0E00
387EFFFFFF0F00
387E7FFFFF8700
78FF3FFF7F8700
70FF9FFE3FC380
70FFCFFC7FC380
71FFE7F8FFC380
71FFF3F1FFE380
E1FFF9E3FFE380
E1FFFCC7FFE380
E1FFFE0FFFE180
E1FFFE1FFFE180
E1FFFE1FFFE380
61FFFF3FFFE380
71FFFFFFFFE380
71FFFFFFFFC380
70FFFFFFFFC380
70FFFFFFFFC700
387FFFFFFF8700
387FFFFFFF8700
3C3FFFFFFF0E00
1C3FFFFFFE0E00
1E1FFFFFFE1C00
0E0FFFFFFC3C00
0707FFFFF83800
0783FFFFE07000
03C0FFFFC0F000
01E03FFF03E000
00F803F007C000
007C00000F8000
003F00003E0000
000FE001FC0000
0003FFFFF00000
0000FFFFC00000
00001FFE000000
ENDCHAR
STARTCHAR 0027
ENCODING 39
SWIDTH 972 0
DWIDTH 50 0
BBX 49 50 0 -9
BITMAP
0000FF00000000
000FFFE0000000
003FFFF8000000
007FFFFC000000
01FFFFFF000000
03FFFFFF800000
07FFFFFFC00000
0FFFEFFFE00000
0FFE00FFE00000
1FF8003FF00000
1FF0381FF80000
3FE07C0FF80000
3FC07C07FC0000
7F807C03FC0000
7F807C03FC0000
7F007C01FC0000
7F007C01FE0000
7F1FFFF1FE0000
FF1FFFF1FE0000
FF1FFFF9FE0000
FF1FFFF1FE0000
7F0FFFC1FE0000
7F007C01FC0000
7F807C01FC0000
7F807C03FC0000
3FC07C03FC0000
3FC07C07F80000
3FE0380FF80000
1FF0001FF00000
1FFC007FF80000
0FFF01FFFC0000
07FFFFFFFE0000
03FFFFFFFF0000
01FFFFFFFF8000
00FFFFFFFFC000
003FFFFFFFE000
001FFFFFFFF000
0003FF87FFF800
00000003FFFC00
00000001FFFE00
00000000FFFF00
000000007FFF80
000000003FFF80
000000001FFF80
000000000FFF80
0000000007FF80
0000000003FF80
0000000001FF00
0000000000FE00
00000000003800
ENDCHAR
STARTCHAR 0028
ENCODING 40
SWIDTH 972 0
DWIDTH 50 0
BBX 49 50 0 -9
BITMAP
0003FF80000000
000FFFF0000000
003FFFF8000000
00FFFFFE000000
01FFFFFF000000
03FFFFFF800000
07FFFFFFC00000
0FFF83FFE00000
0FFC007FF00000
1FF8001FF00000
3FE0000FF80000
3FC00007F80000
3FC00007FC0000
7F800003FC0000
7F800001FC0000
7F000001FC0000
7F0FFFC1FE0000
FF1FFFF1FE0000
FF3FFFF1FE0000
FF3FFFF1FE0000
FF1FFFF1FE0000
7F000001FE0000
7F000001FC0000
7F800003FC0000
7F800003FC0000
3FC00007FC0000
3FE00007F80000
3FE0000FF80000
1FF8001FF80000
0FFC007FFC0000
0FFF83FFFE0000
07FFFFFFFF0000
03FFFFFFFF8000
01FFFFFFFFC000
00FFFFFFFFE000
003FFFFFFFF000
000FFFEFFFF800
0001FF87FFFC00
00000003FFFE00
00000001FFFF00
00000000FFFF00
000000007FFF80
000000003FFF80
000000001FFF80
000000000FFF80
0000000007FF80
0000000003FF80
0000000001FF00
0000000000FE00
00000000001000
ENDCHAR
STARTCHAR 0029
ENCODING 41
SWIDTH 972 0
DWIDTH 50 0
BBX 48 36 1 -2
BITMAP
FFFFFFFFFFFF
FFFFFFFFFFFF
F8000000001F
FC000000003F
FE000000007F
DF00000000FB
CF80000001F3
C7C0000003E3
C3E0000007C3
C1F000000F83
C0F800001F03
C07C00003E03
C03E00007C03
C01F0000F803
C00F8001F003
C007C003E003
C003E007C003
C001F00F8003
C001F81F8003
C003FC3FC003
C007FE7DE003
C00F3FF8F003
C01E1FF07803
C03C07E03C03
C07800001E03
C0F000000F03
C1E000000783
C3C0000003C3
C780000001E3
CF00000000F3
DE000000007B
FC000000003F
F8000000001F
FFFFFFFFFFFF
FFFFFFFFFFFF
FFFFFFFFFFFF
ENDCHAR
STARTCHAR 002A
ENCODING 42
SWIDTH 972 0
DWIDTH 50 0
BBX 43 52 3 -10
BITMAP
00001F800000
00003F800000
00003F800000
00003F800000
00003F800000
00003F800000
00003F800000
00003F800000
00003F800000
00003F800000
00003F800000
00003F800000
00003F800000
00783F83C000
00FE3F8FE000
00FFBFBFE000
007FFFFFC000
003FFFFF8000
001FFFFF0000
000FFFFE0000
0007FFFC0000
3FF3FFF9FFC0
1FF9FFF3FF80
4FFDFFE7FF20
E7FEFFCFFE60
F3FF7F9FFCE0
F9FFBF3FF9E0
FCFFDE7FF3E0
FE7FE1FFE7E0
FF3FFFFFCFE0
FF9FFFFF9FE0
FFCFFFFF3FE0
FFE7FFFE7FE0
FFF3FFFCFFE0
FFF9FFF9FFE0
FFFCFFF3FFE0
FFFE7FE7FFE0
FFFC3FC3FFE0
FFFB9F99FFE0
FFF7CF3CFFE0
FFEFE07E7FE0
FFDFFFFF3FE0
FFBFFFFF9FE0
FF7FFFFFCFE0
FEFFFFFFE7E0
FDFFFFFFF3E0
FBFFFFFFF9E0
F7FFFFFFFCE0
EFFFFFFFFE60
5FFFFFFFFF20
3FFFFFFFFF80
1FFFFFFFFF80
ENDCHAR
STARTCHAR 002B
ENCODING 43
SWIDTH 972 0
DWIDTH 50 0
BBX 49 49 0 -8
BITMAP
FFFFFFFFFFFF80
FFFFFFFFFFFF80
FFFFFFFFFFFF80
FFFFFFFFFFFF80
FFFFFFFFFFFF80
FFFFFFFFFFFF80
FFFFFFFFFFFF80
FC007FFF800F80
FC00FFFFC00F80
FC01FFFFE00F80
FC03FFFFF00F80
FC01FFFFE00F80
FC00FFFFC00F80
FC007FFF800F80
FC003FFF000F80
FC603FFF018F80
FCF07FFF83CF80
FDF8FFFFC7FF80
FFFDFFFFEFFF80
FFFFFFFFFFFF80
FFFFFFFFFFFF80
FFFFFFFFFFFF80
FFFFFFFFFFFF80
FFFFFFFFFFFF80
FFFFFFFFFFFF80
FFFFFFFFFFFF80
FFFFFFFFFFFF80
FFFFFFFFFFFF80
FFFFFFFFFFFF80
FFFFFFFFFFFF80
FFFFFFFFFFFF80
FFF9FFFFE7FF80
FDF0FFFFC3DF80
FCE07FFF818F80
FC403FFF008F80
FC003FFF000F80
FC007FFF800F80
FC00FFFFC00F80
FC01FFFFE00F80
FC03FFFFF00F80
FC01FFFFC00F80
FC00FFFF800F80
FC0FFFFFFC0F80
FFFFFFFFFFFF80
FFFFFFFFFFFF80
FFFFFFFFFFFF80
FFFFFFFFFFFF80
FFFFFFFFFFFF80
FFFFFFFFFFFF80
ENDCHAR
STARTCHAR 002C
ENCODING 44
SWIDTH 972 0
DWIDTH 50 0
BBX 49 49 0 -8
BITMAP
00000000008000
000000003FC000
0000000FFFE000
0000001FFFF000
0000003FFFF800
0000007FFFFC00
000000FFFFFE00
000001FFFEFF00
000003FFFC7F80
000007FFF83F80
00000FFFF01F80
00001FFFF83F80
00003FFFFC7F80
00007FFFFEFF80
0000FFFFFFFF00
0001FFFFFFFF00
0003FFFFFFFF00
0007FFFFFFFF00
000FFFFFFFFF00
001FFFFFFFFF00
003FFFFFFFFE00
007EFFFFFFFE00
00FC7FFFFFFC00
01FC3FFFFFF800
03FE1FFFFFF000
07E70FFFFFE000
0FC387FFFFC000
1FE1C3FFFF8000
3FF0E1FFFF0000
7FF870FFFE0000
FFFC387FFC0000
3FFE1C3FF80000
1FFF0E1FF00000
0FFF870FE00000
07FFC38FC00000
03FFE1CF800000
01FFF0FF000000
00FFF87E000000
007FFC7C000000
003FFEF8000000
001FFFF0000000
000FFFE0000000
0007FFC0000000
0003FF80000000
0001FF00000000
0000FE00000000
00007C00000000
00003800000000
00001000000000
ENDCHAR
STARTCHAR 002D
ENCODING 45
SWIDTH 972 0
DWIDTH 50 0
BBX 49 49 0 -8
BITMAP
000003F0000000
00007FFF800000
0001FFFFE00000
0007FE3FF80000
001FC000FE0000
003F00003F0000
00FC00000F8000
01F0000003C000
03E0000001E000
03E0000080F000
07F00000C07800
0F380001C03C00
0E1C0003C03C00
1E0E0007C01E00
1C07000FC00E00
3C03801FC00F00
3801C03FC00700
7800207FC00700
700000FFC00780
7000FFFFC00380
7000FFFFC00380
7000FFFFC00380
F000FFFFC00380
F000FFFFC00380
E000FFFFC00380
F000FFFFC00380
F000FFFFC00380
7000FFFFC00380
7000FFFFC00380
7000FFFFC00380
7000FFFFC00780
7800007FC00700
3800003FC00700
3800001FC00F00
3C00000FC80E00
1C000007C81E00
1E000003CC1C00
0F000001CE3C00
07800001C77800
07800000C3F000
03C0000001F000
01F0000003E000
00F8000007C000
007E00001F8000
003F80007E0000
000FF003FC0000
0007FFFFF00000
0000FFFFC00000
00001FFE000000
ENDCHAR
STARTCHAR 002E
ENCODING 46
SWIDTH 972 0
DWIDTH 50 0
BBX 42 52 4 -10
BITMAP
1FFFFFFFFF00
1FFFFFFFFF00
1C0000000300
180000000300
180000000300
180000000300
180000000300
180000000300
180000000300
180000000300
180000000300
180000000300
180000000300
180000000300
180000000300
180000000300
180000000300
180000000300
180000000300
180000000300
180000000300
180000000300
180000000300
180000000300
1C0000000700
1FFFFFFFFF00
0FFFFFFFFE00
000000000000
000000000000
1FFFFFFFFF00
1FFFFFFFFF00
1FFFFFFFFF00
1FFFFFE01F00
1FFFFFE01F00
1FFFFFFFFF00
1FFFFFFFFF00
1FFFFFFFFF00
1FFFFFFFFF00
1FFFFFFFFF00
00000E000000
00000E000000
00000E000000
00000E000000
00000E000000
00000E000000
00000E000000
0007FFF80000
0007FFF80000
FFFFFFFFFFC0
FFFFFFFFFFC0
FFFFFFFFFFC0
0007FFF80000
ENDCHAR
STARTCHAR 002F
ENCODING 47
SWIDTH 972 0
DWIDTH 50 0
BBX 49 50 0 -9
BITMAP
030007F8003000
07001FFE007000
03803FFF007000
03807FFF00F000
03C07FFF80E000
01C0FFFFC1E000
41E0FFFFC1E080
61E0FFFFC1C380
70E0FFFFC3C380
70F0FFFFC3C780
78F0FFFFC3C780
78F0FFFFC38700
38F0FFFFC78700
3878FFFFC78F00
3C78FFFFC78F00
3C78FFFFC78F00
3C78FFFFC78F00
3C78FFFFC78F00
3C78FFFFC78F00
3C78FFFFC78E00
3C78FFFFC78E00
3C78FFFFC78E00
3C78FFFFC78F00
3C78FFFFC78F00
3C78FFFFC78F00
3C78FFFFC78F00
3878FFFFC78F00
3870FFFFC78F00
38F0FFFFC78700
78F0FFFFC3C700
70F0FFFFC3C780
70E0FFFFC3C380
71E0FFFF81C380
E1E07FFF81E180
41C07FFF01E180
01C03FFF00E000
03C01FFC00F000
03800FF8007000
07800FF8007000
07000FF8003000
00000FF8000000
00000FF8000000
00000FF8000000
00000FF8000000
00000FF8000000
00000FF8000000
00000FF8000000
00000FF8000000
000007F8000000
000003F0000000
ENDCHAR
STARTCHAR 0030
ENCODING 48
SWIDTH 972 0
DWIDTH 50 0
BBX 49 49 0 -8
BITMAP
000003E0000000
00007FFF800000
0001FFFFE00000
0007FFFFF80000
001FFFFFFE0000
003FFFFFFF0000
007FFFFFFF8000
00FFFFFFFFC000
01FEFFFFFFE000
03FCFFFFCFF000
07F87FFF87F800
0FE07FFF03FC00
0FE03FFF01FC00
1FC03FFE00FE00
1F801FFE007E00
3F000FFC007F00
3F000FFC003F00
7E0007F8003F00
7E0007F0001F80
7E0007F8001F80
7E000FFC001F80
7C001F3E001F80
FC001C0E000F80
FC00380E000F80
FC00380E000F80
FFFFF80FFFFF80
FFFFFC0FFFFF80
7FFFFC1FFFFF80
7FFFFFFFFFFF80
7FFFFFFFFFFF80
7FFFFFFFFFFF80
7FFFF807FFFF80
3FFFF007FFFF00
3FFFF003FFFF00
3FFFE003FFFF00
1FFFE001FFFE00
1FFFC000FFFE00
0FFF8000FFFC00
0FFF80007FF800
07FF00007FF800
03FF00003FF000
01FF00007FE000
00FFC001FFC000
007FFF3FFF8000
003FFFFFFF0000
000FFFFFFC0000
0007FFFFF80000
0001FFFFE00000
00003FFF000000
ENDCHAR
STARTCHAR 0031
ENCODING 49
SWIDTH 972 0
DWIDTH 50 0
BBX 48 52 1 -10
BITMAP
00001FF80000
00001FF80000
00001FF80000
00001FF80000
00001FF80000
00001FF80000
00021FF8C000
000E1FF8F000
003E1FF8FC00
007E1FF8FE00
00FE1FF8FF00
01FE1FF8FF80
03FE1FF8FFC0
07FE1FF8FFE0
0FFC1FF83FE0
0FF81FF81FF0
1FF01FF80FF8
3FE01FF807F8
3FC01FF803FC
3F801FF803FC
7F801FF801FC
7F001FF801FE
7F001FF800FE
FF001FF800FE
FE001FF800FE
FE001FF800FF
FE001FF800FF
FE001FF8007F
FE001FF8007F
FE000000007F
FE00000000FF
FE00000000FE
FF00000000FE
7F00000000FE
7F00000001FE
7F80000001FE
7F80000003FC
3FC0000003FC
3FE0000007F8
1FF000000FF8
1FF800001FF0
0FFC00003FF0
07FE0000FFE0
03FF8003FFC0
03FFF01FFF80
01FFFFFFFF00
007FFFFFFE00
003FFFFFFC00
001FFFFFF000
0007FFFFE000
0001FFFF0000
00001FF80000
ENDCHAR
STARTCHAR 0032
ENCODING 50
SWIDTH 972 0
DWIDTH 50 0
BBX 46 52 2 -10
BITMAP
00000FC00000
00001FC00000
00001FE00000
00001FE00000
00003FE00000
00001FE00000
00001FE00000
00001FE00000
00001FE00000
00001FC00000
00001FC00040
7E000FC001F8
FF000FC007FC
FFC00F800FFC
FFE00F801FFC
FFF007803FFC
FFF807807FFC
7FFC0700FFF8
3FFC0701FFF0
1FFE0703FFC0
03FF8707FF00
00FFC78FF800
000FFFFF8000
0000FFFC0000
00003FF00000
00003FF00000
00003FF00000
00007FF00000
0001FFFE0000
001FFFFFE000
00FFC78FFC00
07FF8707FF80
1FFE0703FFE0
7FFC0781FFF8
FFF80780FFFC
FFF007807FFC
FFE00F803FFC
FFC00FC01FFC
FF800FC007FC
7F000FC003F8
3C001FC000F0
00001FC00000
00001FE00000
00001FE00000
00001FE00000
00001FE00000
00001FE00000
00001FE00000
00001FE00000
00001FE00000
00000FC00000
000007800000
ENDCHAR
STARTCHAR 0033
ENCODING 51
SWIDTH 972 0
DWIDTH 50 0
BBX 49 46 0 -7
BITMAP
00000080000000
000000C0000000
000001C0000000
000001E0000000
000003E0000000
000003F0000000
000007F0000000
000007F8000000
00000FF8000000
00000FFC000000
00001FFC000000
00001FFE000000
00003FFE000000
00003FFF000000
00007FFF000000
0007FFFFF80000
03FFFFFFFFF000
FFFFFFFFFFFF80
3FFFFFFFFFFF00
1FFFFFFFFFFE00
0FFFFFFFFFFC00
07FFFFFFFFF800
03FFFFFFFFF000
01FFFFFFFFE000
00FFFFFFFFC000
007FFFFFFF8000
003FFFFFFF0000
001FFFFFFE0000
000FFFFFFC0000
0007FFFFF80000
000FFFFFF80000
000FFFFFFC0000
000FFFFFFC0000
000FFFFFFC0000
000FFFFFFC0000
000FFFFFFC0000
001FFFFFFC0000
001FFFFFFE0000
001FFF3FFE0000
001FFC0FFE0000
001FF007FE0000
001FC001FE0000
003F80007E0000
003E00001F0000
00380000070000
00200000010000
ENDCHAR
STARTCHAR 0034
ENCODING 52
SWIDTH 972 0
DWIDTH 50 0
BBX 49 36 0 -2
BITMAP
1FFFFFFFFFFE00
1FFFFFFFFFFE00
1FFFFFFFFFFC00
6FFFFFFFFFF980
F7FFFFFFFFF380
FBFFFFFFFFE780
FDFFFFFFFFCF80
FEFFFFFFFF9F80
FF7FFFFFFF3F80
FFBFFFFFFE7F80
FFDFFFFFFCFF80
FFEFFFFFF9FF80
FFF7FFFFF3FF80
FFFBFFFFE7FF80
FFFDFFFFCFFF80
FFFEFFFF9FFF80
FFFF7FFF3FFF80
FFFFBFFE7FFF80
FFFF1FFC7FFF80
FFFF4FF93FFF80
FFFEE7F3DFFF80
FFFDF1E7EFFF80
FFFBFC0FF7FF80
FFF7FFFFFBFF80
FFEFFFFFFDFF80
FFDFFFFFFEFF80
FFBFFFFFFF7F80
FF7FFFFFFFBF80
FEFFFFFFFFDF80
FDFFFFFFFFEF80
FBFFFFFFFFF780
F7FFFFFFFFFB80
6FFFFFFFFFFD80
1FFFFFFFFFFE00
1FFFFFFFFFFE00
1FFFFFFFFFFC00
ENDCHAR
STARTCHAR 0035
ENCODING 53
SWIDTH 972 0
DWIDTH 50 0
BBX 49 38 0 -4
BITMAP
000000C07C0000
000003E0FE0000
00000778FE0000
00001E1CFE0000
0000388FFE0000
0000F1C3FE0000
0001C3F1FE0000
00078FF87E0000
000E1FFE3E0000
003C7FFF0E0000
0078FFFFC78000
01E3FFFFE1C000
03C7FFFFF8F000
071FFFFFFC7800
1E3FFFFFFE1C00
387FFFFFFF8F00
F0FFFFFFFFC380
40FFFFFFFFC180
00FFFFFFFFC000
00FFFFFFFFC000
00FFFFFFFFC000
00FFFFFFFFC000
00FFF807FFC000
00FFF807FFC000
00FFF807FFC000
00FFF807FFC000
00FFF807FFC000
00FFF807FFC000
00FFF807FFC000
00FFF807FFC000
00FFF807FFC000
00FFF807FFC000
00FFF807FFC000
00FFF807FFC000
00FFF807FFC000
00FFF807FFC000
00FFF807FFC000
007FF807FF8000
ENDCHAR
STARTCHAR 0036
ENCODING 54
SWIDTH 972 0
DWIDTH 50 0
BBX 49 52 0 -10
BITMAP
007000001E0000
00FC00003F8000
01FC00007F8000
03FE00007FC000
03FE00007FC000
03FE00007F8000
01FC00003F8000
00F800001F0000
00300000000000
000000007F8000
1FFFC001FFF000
3FFFE003FFF800
7FFFF007FFF800
7FFFF007FFFC00
FFFFF807FFFC00
FFFFF80F7FDC00
F7FF780F7FDE00
F7FF780FFFDE00
F7FF781EFFFE00
F7FF781EFFEE00
F7FF781EFFEF00
F7FF781DFFEF00
F7FF783DFFF700
F7FF783DFFF780
F7FF783FFFF780
F7FF787BFFFF80
F7FF787BFFFB80
F7FF7833FFFB80
F7FF7807FFF800
67FF3007FFFC00
07DF0007FFFC00
07DF000FFFFC00
07DF000FFFFE00
07DF000FFFFE00
07DF001FFFFE00
07DF00007BC000
07DF00007BC000
07DF00007BC000
07DF00007BC000
07DF00007BC000
07DF00007BC000
07DF00007BC000
07DF00007BC000
07DF00007BC000
07DF00007BC000
07DF00007BC000
07DF00007BC000
07DF00007BC000
07DF00007BC000
07DF00007BC000
03CF00007BC000
01040000318000
ENDCHAR
STARTCHAR 0037
ENCODING 55
SWIDTH 972 0
DWIDTH 50 0
BBX 49 38 0 -3
BITMAP
0001FE00000000
000FFFE0000000
003FFFF8000000
00FF03FC000000
01FE01FE000000
03FC00FF000000
07FC00FF800000
0FFC007FC00000
1FFC007FE00000
1FFC00FFF00000
3FFC00FFF00000
3FFE01FFF80000
7FFF03FFF80000
7E1FEFE0F80000
7807FFC0780000
7007FF803C0000
7003FF001C0000
F003FF001C0000
E003FF001C0000
F003FF001C0000
F003FF001C0000
7007FF803C0000
780FFFC07C0000
7E1FCFE0F80000
7FFF01FFF80000
3FFE00FFF80000
3FFC00FFF00000
1FFC00FFF00000
1FFC007FE00000
0FFC007FE00000
07FC00FFE00000
07FE00FFE00380
03FE01FFF01F80
00FF83FEF8FF80
007FFFFC7FFE00
001FFFF03FF800
0007FFC00FC000
00007000000000
ENDCHAR
STARTCHAR 0038
ENCODING 56
SWIDTH 972 0
DWIDTH 50 0
BBX 38 52 6 -10
BITMAP
7FFFFFFFF8
FFFFFFFFFC
FFFFFFFFFC
FFFFFFFFFC
F00000003C
F00000003C
F00000003C
F00000003C
F00000003C
F00000003C
F00000003C
F00000003C
F00000003C
F00000003C
FFFFFFFFFC
FFFFFFFFFC
FFFFFFFFFC
FFFFFFFFFC
F01F03E03C
F01F03E03C
F01F03E03C
F01F03E03C
F01F03E03C
F01F03E03C
F83F03F07C
FFFFFFFFFC
FFFFFFFFFC
FFFFFFFFFC
FFFFFFFFFC
F01F03E03C
F01F03E03C
F01F03E03C
F01F03E03C
F01F03E03C
F01F03E03C
F03F03F03C
FFFFFFFFFC
FFFFFFFFFC
FFFFFFFFFC
FFFFFFFFFC
F01F03E03C
F01F03E03C
F01F03E03C
F01F03E03C
F01F03E03C
F01F03E03C
F01F03E03C
FFFFFFFFFC
FFFFFFFFFC
FFFFFFFFFC
FFFFFFFFFC
7FFFFFFFF8
ENDCHAR
STARTCHAR 0039
ENCODING 57
SWIDTH 972 0
DWIDTH 50 0
BBX 49 47 0 -7
BITMAP
60000000000000
F8000000000000
FC000000000000
7E000000000000
1F000000000000
0F000000000000
07800000000000
07C3FFFFFFFF80
03C1FFFFFFFF80
01E1FFFFFFFF00
01E1FFFFFFFF00
00E1FFFFFFFE00
00F1FFFFFFFE00
00F1FFFFFFFC00
0070FFFFFFFC00
0078FFFFFFF800
0078FFFFFFF800
0038FFFFFFF000
0038FFFFFFF000
003CFFFFFFF000
003C7FFFFFE000
003C7FFFFFE000
001C7FFFFFC000
001C7FFFFFC000
001E0000000000
001E0000000000
001E0000000000
001E0000000000
001E0000000000
000E0000000000
000E0000000000
000FFFFFFFFC00
000FFFFFFFFC00
000FFFFFFFFC00
00000000000000
00000000000000
00000000000000
0007800001C000
000FE00007F000
001FF0000FF800
003FF0000FF800
003FF0001FF800
003FF0001FFC00
003FF0001FF800
001FF0000FF800
001FE0000FF000
000FC00003E000
ENDCHAR
STARTCHAR 003A
ENCODING 58
SWIDTH 972 0
DWIDTH 50 0
BBX 49 49 0 -9
BITMAP
00000000300000
00000003FF8000
0000000FFFC000
0000003FFFF000
0000007FFFF800
000000FFFFFC00
000001FFFCFE00
000001FFF83E00
000003FFF01F00
000003FFF01F00
000007FFE01F80
000007FFF01F80
000007FFF01F80
000007FFF83F80
000007FFFFFF80
000007FFFFFF80
000007FFFFFF80
000007FFFFFF80
000007FFFFFF80
000003FFFFFF00
000013FFFFFF00
000031FFFFFE00
000079FFFFFE00
0000F8FFFFFC00
0001FC7FFFF800
0003FE3FFFF000
0007FF1FFFE000
000FFF87FF8000
001FFFC0780000
003FFFF0000000
007FFFFC000000
00FFFF00000000
01FFFF00000000
03FFFF00000000
07FFFF00000000
0FFFF800000000
1FFFF800000000
3FFFF800000000
3FFC0000000000
7FFC0000000000
7FFC0000000000
FFFC0000000000
FFFC0000000000
FFFC0000000000
7FE00000000000
7FE00000000000
3FE00000000000
3FE00000000000
0FE00000000000
ENDCHAR
STARTCHAR 003B
ENCODING 59
SWIDTH 972 0
DWIDTH 50 0
BBX 50 49 0 -8
BITMAP
000001E0000000
000001E0000000
000001E0000000
000001E0000000
000001E0000000
000001E0000000
000001E0000000
000001E0000000
000001E0000000
000001E0000000
000001E0000000
000001E0000000
000001E0000000
000001E0000000
000001E0000000
000001E0000000
000001E0000000
000001E0000000
000001E0000000
000001E0000000
000001E0000000
000001E0000000
000001E0000000
FFFFFFFFFFFFC0
FFFFFFFFFFFFC0
FFFFFFFFFFFFC0
FFFFFFFFFFFFC0
000001E0000000
000001E0000000
000001E0000000
000001E0000000
000001E0000000
000001E0000000
000001E0000000
000001E0000000
000001E0000000
000001E0000000
000001E0000000
000001E0000000
000001E0000000
000001E0000000
000001E0000000
000001E0000000
000001E0000000
000001E0000000
000001E0000000
000001E0000000
000001E0000000
000001E0000000
ENDCHAR
STARTCHAR 003C
ENCODING 60
SWIDTH 972 0
DWIDTH 50 0
BBX 49 40 0 -4
BITMAP
000000C0000000
000001E0000000
000001E0000000
000003F0000000
000007F8000000
000007F8000000
00000FFC000000
00000FFC000000
00001F3E000000
00003E3F000000
00003E1F000000
00007C0F800000
00007C0F800000
0000F807C00000
0001F807E00000
0001F003E00000
0003E001F00000
0003E001F00000
0007C000F80000
000FC000F80000
000F80007C0000
001F00007E0000
001F00003E0000
003E00001F0000
007E00001F0000
007C00000F8000
00F800000FC000
00F8000007C000
01F0000003E000
03F0000003E000
03E0000001F000
07C0000001F800
07C0000000F800
0F800000007C00
1F800000007C00
1F000000003E00
3E000000003F00
3E000000001F00
7C000000000F80
FC000000000F80
ENDCHAR
STARTCHAR 003D
ENCODING 61
SWIDTH 972 0
DWIDTH 50 0
BBX 49 49 0 -8
BITMAP
000003F0000000
00007FFF000000
0001FC0FE00000
0007C000F80000
001E00003E0000
003800000F0000
00F00000038000
01E0000001C000
0380000000E000
03000000007000
061FFFFC003800
0E03F0FF001800
0C03E01F800C00
1803E00FC00E00
1803E00FC00600
3003E007E00700
3003E007E00300
7003E007E00300
6003E007E00380
6003E007E00180
6003E007C00180
6003E00FC00180
E003E01F800180
E003E07E000180
C003FFF8000180
C003FFF0000180
E003E1F0000180
E003E1F8000180
6003E0FC000180
6003E07C000180
6003E03E000380
7003E03F000300
3003E01F000300
3003E00F800700
3803E007C00600
1803E007E00E00
1C03F003E00C00
0C03F001F01C00
0E1FFF01FE1800
071FFF00FE3000
03800000007000
01C0000000E000
00E0000001C000
00780000078000
003C00001E0000
000F80007C0000
0003F003F00000
0000FFFFC00000
00001FFE000000
ENDCHAR
STARTCHAR 003E
ENCODING 62
SWIDTH 972 0
DWIDTH 50 0
BBX 49 49 0 -8
BITMAP
000003F0000000
00007FFF000000
0001FE3FE00000
0007C000F80000
001F00003E0000
003C00000F0000
00F00000038000
01E0000001C000
0380000000E000
030003FC187000
07001FFFB83800
0E007801F81800
0C01F000F80C00
1C03C000780E00
18078000380600
300F8000180700
301F00001C0300
701F00000C0300
603F00000C0380
603E0000000180
603E0000000180
607E0000000180
E07E0000000180
E07E0000000180
C07E0000000180
C07E0000000180
E07E0000000180
E07E0000000180
607E0000000180
603E0000000180
603F0000000380
603F0000000300
301F0000000300
300F80000C0700
380FC000180600
1807E000300E00
1C03F000600C00
0C00FC01C01C00
0E007FFF801800
07000FFC003000
03800000007000
01C0000000E000
00E0000001C000
00780000078000
003C00001E0000
000F00007C0000
0007F003F00000
0000FFFFC00000
00001FFE000000
ENDCHAR
STARTCHAR 003F
ENCODING 63
SWIDTH 972 0
DWIDTH 50 0
BBX 49 49 0 -8
BITMAP
000000C0000000
00007FFF000000
0001FFFFE00000
0007FFFFF80000
001FFFFFFE0000
003FFFFFFF0000
007FF003FF8000
00FF80007FC000
01FE00001FE000
03FC00000FF000
07F0000007F800
0FE0000003F800
0FC0000001FC00
1FC0000000FE00
1F800000007E00
3F000000007F00
3F000000003F00
7E000000003F00
7E000000001F80
7E000000001F80
7C000000001F80
7C000000000F80
7C000000000F80
FC000000000F80
FC000000000F80
FC000000000F80
FC000000000F80
7C000000000F80
7C000000000F80
7C000000001F80
7E000000001F80
7E000000001F00
3E000000003F00
3F000000003F00
3F000000007E00
1F800000007E00
1FC0000000FC00
0FE0000001FC00
07F0000003F800
07F8000007F000
03FC00000FF000
01FF00003FE000
00FFC000FFC000
007FF807FF8000
003FFFFFFE0000
000FFFFFFC0000
0007FFFFF00000
0001FFFFC00000
00003FFE000000
ENDCHAR
STARTCHAR 0040
ENCODING 64
SWIDTH 972 0
DWIDTH 50 0
BBX 49 49 0 -8
BITMAP
00000080000000
00000080000000
000000C0000000
000001C0000000
000001E0000000
000003E0000000
000003F0000000
000007F0000000
000007F8000000
00000FF8000000
00000FFC000000
00001FFC000000
00001FFE000000
00003FFE000000
00003FFF000000
00007FFF000000
00007FFF800000
0000FFFF800000
0000FFFFC00000
0001FFFFC00000
0001FFFFE00000
0003FFFFE00000
0003FFFFF00000
0007FFFFF00000
0007FFFFF80000
000FFFFFF80000
000FFFFFFC0000
001FFFFFFC0000
001FFFFFFE0000
003FFFFFFE0000
003FFFFFFF0000
007FFFFFFF0000
007FFFFFFF8000
00FFFFFFFF8000
00FFFFFFFFC000
01FFFFFFFFC000
01FFFFFFFFE000
03FFFFFFFFE000
03FFFFFFFFF000
07FFFFFFFFF000
07FFFFFFFFF800
0FFFFFFFFFF800
0FFFFFFFFFFC00
1FFFFFFFFFFC00
1FFFFFFFFFFE00
3FFFFFFFFFFE00
3FFFFFFFFFFF00
7FFFFFFFFFFF00
FFFFFFFFFFFF80
ENDCHAR
STARTCHAR 0041
ENCODING 65
SWIDTH 972 0
DWIDTH 50 0
BBX 49 47 0 -7
BITMAP
80002000000000
C0003000000000
F0003800000000
F8003C00000000
FC003F00000000
FF003F80000000
FF803FC0000000
FFC03FF0000000
FFF03FF8000000
FFF83FFC000000
FFFC3FFF000000
FFFF3FFF800000
FFFF9FFFC00000
FFFFC7FFF00000
FFFFF3FFF80000
FFFFF9FFFC0000
FFFFFC7FFF0000
FFFFFE3FFF8000
FFFFFF9FFFC000
FFFFFFC7FFF000
FFFFFFE3FFF800
FFFFFFF9FFFC00
FFFFFFFC7FFF00
FFFFFFFF3FFF80
FFFFFFFE7FFF00
FFFFFFF8FFFE00
FFFFFFF3FFFC00
FFFFFFE7FFF000
FFFFFF8FFFE000
FFFFFF1FFFC000
FFFFFE7FFF0000
FFFFF8FFFE0000
FFFFF1FFFC0000
FFFFE7FFF00000
FFFF8FFFE00000
FFFF1FFFC00000
FFFE3FFF000000
FFF83FFE000000
FFF03FFC000000
FFE03FF0000000
FF803FE0000000
FF003FC0000000
FE003F00000000
FC003E00000000
F0003C00000000
E0003000000000
C0002000000000
ENDCHAR
STARTCHAR 0042
ENCODING 66
SWIDTH 972 0
DWIDTH 50 0
BBX 42 52 4 -10
BITMAP
80000001FFC0
C0000001FFC0
F0000001FFC0
FC000001FFC0
FE000001FFC0
FF800001FFC0
FFE00001FFC0
FFF00001FFC0
FFFC0001FFC0
FFFF0001FFC0
FFFF8001FFC0
FFFFE001FFC0
FFFFF801FFC0
FFFFFC01FFC0
FFFFFF01FFC0
FFFFFF81FFC0
FFFFFFE1FFC0
FFFFFFF9FFC0
FFFFFFFDFFC0
FFFFFFFFFFC0
FFFFFFFFFFC0
FFFFFFFFFFC0
FFFFFFFFFFC0
FFFFFFFFFFC0
FFFFFFFFFFC0
FFFFFFFFFFC0
FFFFFFFFFFC0
FFFFFFFFFFC0
FFFFFFFFFFC0
FFFFFFFFFFC0
FFFFFFFFFFC0
FFFFFFFFFFC0
FFFFFFFFFFC0
FFFFFFFDFFC0
FFFFFFF1FFC0
FFFFFFC1FFC0
FFFFFF81FFC0
FFFFFE01FFC0
FFFFFC01FFC0
FFFFF001FFC0
FFFFC001FFC0
FFFF8001FFC0
FFFE0001FFC0
FFF80001FFC0
FFF00001FFC0
FFC00001FFC0
FF000001FFC0
FE000001FFC0
F8000001FFC0
E0000001FFC0
C0000001FFC0
80000001FFC0
ENDCHAR
STARTCHAR 0043
ENCODING 67
SWIDTH 972 0
DWIDTH 50 0
BBX 38 52 6 -10
BITMAP
FFFF03FFFC
FFFF03FFFC
FFFF03FFFC
FFFF03FFFC
FFFF03FFFC
FFFF03FFFC
FFFF03FFFC
FFFF03FFFC
FFFF03FFFC
FFFF03FFFC
FFFF03FFFC
FFFF03FFFC
FFFF03FFFC
FFFF03FFFC
FFFF03FFFC
FFFF03FFFC
FFFF03FFFC
FFFF03FFFC
FFFF03FFFC
FFFF03FFFC
FFFF03FFFC
FFFF03FFFC
FFFF03FFFC
FFFF03FFFC
FFFF03FFFC
FFFF03FFFC
FFFF03FFFC
FFFF03FFFC
FFFF03FFFC
FFFF03FFFC
FFFF03FFFC
FFFF03FFFC
FFFF03FFFC
FFFF03FFFC
FFFF03FFFC
FFFF03FFFC
FFFF03FFFC
FFFF03FFFC
FFFF03FFFC
FFFF03FFFC
FFFF03FFFC
FFFF03FFFC
FFFF03FFFC
FFFF03FFFC
FFFF03FFFC
FFFF03FFFC
FFFF03FFFC
FFFF03FFFC
FFFF03FFFC
FFFF03FFFC
FFFF03FFFC
FFFF03FFFC
ENDCHAR
STARTCHAR 0044
ENCODING 68
SWIDTH 972 0
DWIDTH 50 0
BBX 42 52 4 -10
BITMAP
800000000000
C00000000000
F00000000000
FC0000000000
FE0000000000
FF8000000000
FFC000000000
FFF000000000
FFFC00000000
FFFE00000000
FFFF80000000
FFFFE0000000
FFFFF0000000
FFFFFC000000
FFFFFF000000
FFFFFF800000
FFFFFFE00000
FFFFFFF80000
FFFFFFFC0000
FFFFFFFF0000
FFFFFFFF8000
FFFFFFFFE000
FFFFFFFFF800
FFFFFFFFFC00
FFFFFFFFFF00
FFFFFFFFFFC0
FFFFFFFFFF80
FFFFFFFFFF00
FFFFFFFFFC00
FFFFFFFFF000
FFFFFFFFE000
FFFFFFFF8000
FFFFFFFE0000
FFFFFFFC0000
FFFFFFF00000
FFFFFFC00000
FFFFFF800000
FFFFFE000000
FFFFFC000000
FFFFF0000000
FFFFC0000000
FFFF80000000
FFFE00000000
FFF800000000
FFF000000000
FFC000000000
FF0000000000
FE0000000000
F80000000000
E00000000000
C00000000000
800000000000
ENDCHAR
STARTCHAR 0045
ENCODING 69
SWIDTH 972 0
DWIDTH 50 0
BBX 49 49 0 -8
BITMAP
000001E0000000
00007FFF000000
0001FFFFE00000
0007FFFFF80000
001FFFFFFE0000
003FFFFFFF0000
007FFFFFFF8000
00FFFFFFFFC000
01FFFFFFFFE000
03FFFFFFFFF000
07FFFFFFFFF800
0FFFFFFFFFF800
0FFFFFFFFFFC00
1FFFFFFFFFFE00
1FFFFC0FFFFE00
3FFFE003FFFF00
3FFFC000FFFF00
3FFF80007FFF00
7FFF00003FFF80
7FFE00003FFF80
7FFE00001FFF80
7FFE00001FFF80
7FFC00001FFF80
FFFC00000FFF80
FFFC00000FFF80
FFFC00000FFF80
FFFC00000FFF80
7FFC00001FFF80
7FFE00001FFF80
7FFE00001FFF80
7FFF00003FFF80
7FFF00007FFF00
3FFF80007FFF00
3FFFC001FFFF00
3FFFF003FFFE00
1FFFFF3FFFFE00
1FFFFFFFFFFC00
0FFFFFFFFFFC00
07FFFFFFFFF800
07FFFFFFFFF000
03FFFFFFFFF000
01FFFFFFFFE000
00FFFFFFFFC000
007FFFFFFF8000
003FFFFFFE0000
000FFFFFFC0000
0003FFFFF00000
0000FFFFC00000
00001FFE000000
ENDCHAR
STARTCHAR 0046
ENCODING 70
SWIDTH 972 0
DWIDTH 50 0
BBX 48 48 1 -8
BITMAP
FFFFFFFFFFFF
FFFFFFFFFFFF
FFFFFFFFFFFF
FFFFFFFFFFFF
FFFFFFFFFFFF
FFFFFFFFFFFF
FFFFFFFFFFFF
FFFFFFFFFFFF
FFFFFFFFFFFF
FFFFFFFFFFFF
FFFFFFFFFFFF
FFFFFFFFFFFF
FFFFFFFFFFFF
FFFFFFFFFFFF
FFFFFFFFFFFF
FFFFFFFFFFFF
FFFFFFFFFFFF
FFFFFFFFFFFF
FFFFFFFFFFFF
FFFFFFFFFFFF
FFFFFFFFFFFF
FFFFFFFFFFFF
FFFFFFFFFFFF
FFFFFFFFFFFF
FFFFFFFFFFFF
FFFFFFFFFFFF
FFFFFFFFFFFF
FFFFFFFFFFFF
FFFFFFFFFFFF
FFFFFFFFFFFF
FFFFFFFFFFFF
FFFFFFFFFFFF
FFFFFFFFFFFF
FFFFFFFFFFFF
FFFFFFFFFFFF
FFFFFFFFFFFF
FFFFFFFFFFFF
FFFFFFFFFFFF
FFFFFFFFFFFF
FFFFFFFFFFFF
FFFFFFFFFFFF
FFFFFFFFFFFF
FFFFFFFFFFFF
FFFFFFFFFFFF
FFFFFFFFFFFF
FFFFFFFFFFFF
FFFFFFFFFFFF
FFFFFFFFFFFF
ENDCHAR
STARTCHAR 0047
ENCODING 71
SWIDTH 972 0
DWIDTH 50 0
BBX 43 52 3 -10
BITMAP
7FF000000020
7FF0000000E0
7FF0000001E0
7FF0000007E0
7FF000001FE0
7FF000003FE0
7FF00000FFE0
7FF00001FFE0
7FF00007FFE0
7FF0001FFFE0
7FF0003FFFE0
7FF000FFFFE0
7FF003FFFFE0
7FF007FFFFE0
7FF01FFFFFE0
7FF07FFFFFE0
7FF0FFFFFFE0
7FF3FFFFFFE0
7FF7FFFFFFE0
7FFFFFFFFFE0
7FFFFFFFFFE0
7FFFFFFFFFE0
7FFFFFFFFFE0
7FFFFFFFFFE0
7FFFFFFFFFE0
FFFFFFFFFFE0
7FFFFFFFFFE0
7FFFFFFFFFE0
7FFFFFFFFFE0
7FFFFFFFFFE0
7FFFFFFFFFE0
7FFFFFFFFFE0
7FFFFFFFFFE0
7FF7FFFFFFE0
7FF1FFFFFFE0
7FF0FFFFFFE0
7FF03FFFFFE0
7FF00FFFFFE0
7FF007FFFFE0
7FF001FFFFE0
7FF000FFFFE0
7FF0003FFFE0
7FF0000FFFE0
7FF00007FFE0
7FF00001FFE0
7FF000007FE0
7FF000003FE0
7FF000000FE0
7FF0000003E0
7FF0000001E0
7FF000000060
7FF000000020
ENDCHAR
STARTCHAR 0048
ENCODING 72
SWIDTH 972 0
DWIDTH 50 0
BBX 49 47 0 -7
BITMAP
00000001000080
00000003000080
00000007000380
0000001F000780
0000003F000F80
0000007F003F80
000001FF007F80
000003FF00FF80
000007FF03FF80
00001FFF07FF80
00003FFF0FFF80
00007FFF3FFF80
0001FFFE7FFF80
0003FFF8FFFF80
0007FFF3FFFF80
001FFFE7FFFF80
003FFF8FFFFF80
007FFF3FFFFF80
01FFFE7FFFFF80
03FFF8FFFFFF80
07FFF3FFFFFF80
1FFFE7FFFFFF80
3FFF8FFFFFFF80
FFFF3FFFFFFF80
7FFF9FFFFFFF80
1FFFCFFFFFFF80
0FFFE3FFFFFF80
07FFF9FFFFFF80
01FFFCFFFFFF80
00FFFE3FFFFF80
007FFF9FFFFF80
001FFFCFFFFF80
000FFFE3FFFF80
0007FFF9FFFF80
0001FFFCFFFF80
0000FFFE3FFF80
00007FFF1FFF80
00001FFF0FFF80
00000FFF03FF80
000007FF01FF80
000001FF00FF80
000000FF003F80
0000007F001F80
0000001F000F80
0000000F000380
00000007000180
00000001000080
ENDCHAR
STARTCHAR 0049
ENCODING 73
SWIDTH 972 0
DWIDTH 50 0
BBX 48 49 1 -8
BITMAP
F08000000000
F0C000000000
F0F000000000
F0F800000000
F0FE00000000
F0FE00000000
F0FE00000000
F0FE10000000
F0FE1C000000
F0FE1E000000
F0FE1F800000
F0FE1FE00000
F0FE1FF00000
F0FE1FFC0000
F0FE1FFE0000
F0FE1FFF8000
F0FE1FFFE000
F0FE1FFFF000
F0FE1FFFFC00
F0FE1FFFFF00
F0FE1FFFFF80
F0FE1FFFFFE0
F0FE1FFFFFF8
F0FE1FFFFFFC
F0FE1FFFFFFF
F0FE1FFFFFFE
F0FE1FFFFFFC
F0FE1FFFFFF0
F0FE1FFFFFC0
F0FE1FFFFF80
F0FE1FFFFE00
F0FE1FFFF800
F0FE1FFFF000
F0FE1FFFC000
F0FE1FFF0000
F0FE1FFE0000
F0FE1FF80000
F0FE1FF00000
F0FE1FC00000
F0FE1F000000
F0FE1E000000
F0FE18000000
F0FE00000000
F0FE00000000
F0FE00000000
F0FC00000000
F0F800000000
F0E000000000
F08000000000
ENDCHAR
STARTCHAR 004A
ENCODING 74
SWIDTH 972 0
DWIDTH 50 0
BBX 49 48 0 -8
BITMAP
00000080000000
000000C0000000
000001E0000000
000003F0000000
000007F0000000
000007F8000000
00000FFC000000
00001FFE000000
00003FFE000000
00003FFF000000
00007FFF800000
0000FFFFC00000
0001FFFFE00000
0001FFFFE00000
0003FFFFF00000
0007FFFFF80000
000FFFFFFC0000
000FFFFFFC0000
001FFFFFFE0000
003FFFFFFF0000
007FFFFFFF8000
007FFFFFFF8000
00FFFFFFFFC000
01FFFFFFFFE000
03FFFFFFFFF000
03FFFFFFFFF000
07FFFFFFFFF800
0FFFFFFFFFFC00
1FFFFFFFFFFE00
3FFFFFFFFFFE00
3FFFFFFFFFFF00
7FFFFFFFFFFF80
80000000000000
00000000000000
00000000000000
00000000000000
FFFFFFFFFFFF80
FFFFFFFFFFFF80
FFFFFFFFFFFF80
FFFFFFFFFFFF80
FFFFFFFFFFFF80
FFFFFFFFFFFF80
FFFFFFFFFFFF80
FFFFFFFFFFFF80
FFFFFFFFFFFF80
FFFFFFFFFFFF80
FFFFFFFFFFFF80
FFFFFFFFFFFF80
ENDCHAR
STARTCHAR 004B
ENCODING 75
SWIDTH 972 0
DWIDTH 50 0
BBX 48 50 1 -9
BITMAP
0000000000E0
0000000003E0
0000000007E0
000000000FE0
000000000FE0
000000001FE0
000000001FC0
000000003FC0
000000003F80
000000007F00
00000000FF00
00000000FE00
00000001FE00
00000001FC00
00000003FC00
1FFFFFFFF800
3FFFFFFFF000
3FFFFFFFF000
7FFFFFFFF000
7FFFFFFFF000
FFFFFFFFF800
7FFFFFFFFC00
03FFFFFFFC00
000FFFFFFE00
00007FFFFE00
000003FFFF00
000001FFFF00
000003FFFF80
000003FFFFC0
000007FBFFC0
000007F1FFE0
00000FE0FFE0
00001FC0FFF0
00001FC07FF0
00003F803FF8
00003F001FFC
00007F000FFC
001FFE0007FE
003FFC0003FE
007FFC0001FF
00FFFE0001FF
007FFE0000FF
0007FE00007E
00007F00003C
00003F00001C
00001F000008
00001F000008
00000E000000
000006000000
000004000000
ENDCHAR
STARTCHAR 004C
ENCODING 76
SWIDTH 972 0
DWIDTH 50 0
BBX 42 52 4 -10
BITMAP
000000004000
000000004000
00000000C000
00000000E000
00000001E000
0001FE01F000
001FFFFBF000
007FFFFFF000
01FFFFFFF800
03FFFFFFF800
07FFFFFFFC00
0FFFFFFFFC00
1FE01FFFFE00
1F0003FFFE00
380000FFFE00
600000FFFF00
800000FFFF00
000001FFFF80
000001FFFF80
000003FFFF80
000007FFFFC0
000007FFC000
00000FC00000
000010000000
000000000000
000000000000
000000000000
000000000000
000004000000
0007F8000000
07FFF8000000
FFFFF0000000
FFFFF0000000
7FFFE0000000
7FFFC0000000
3FFFC0000080
3FFF80000300
1FFFC0000F00
1FFFF0007E00
1FFFFF07FC00
0FFFFFFFF800
0FFFFFFFF000
07FFFFFFE000
07FFFFFFC000
07FFFFFF0000
03E3FFFC0000
03E000000000
01C000000000
01C000000000
01C000000000
008000000000
008000000000
ENDCHAR
STARTCHAR 004D
ENCODING 77
SWIDTH 972 0
DWIDTH 50 0
BBX 49 42 0 -5
BITMAP
0000FFC0000000
0007FFF8000000
001FFFFE000000
007FFFFF800000
00FFFFFFC00000
01FFFFFFF00000
03FFC07FF80000
07FE001FF80000
0FF80007FC0000
0FF00001FE0000
1FE00000FE0000
3FC000007F0000
3F8000007F0000
3F0000003F8000
7F0000003F8000
7F0000001F8000
7E0000081FC000
7E000007FFFF80
FE000007FFFF00
FE000003FFFE00
FE000001FFFC00
FE000000FFF800
FE0000007FF000
7E0000003FF000
7E0000001FE000
7E0000001FC000
7F0000000F8000
7F000000070000
3F800000020000
3FC00000000000
1FC00000000000
1FE00000000000
0FF80002000000
07FC000E000000
03FF003E000000
01FFFFFF000000
00FFFFFF000000
007FFFFF800000
003FFFFF000000
000FFFFC000000
0001FFF0000000
00000C00000000
ENDCHAR
STARTCHAR 004E
ENCODING 78
SWIDTH 972 0
DWIDTH 50 0
BBX 49 35 0 -1
BITMAP
00000000003800
00000000007C00
0000000000FE00
0000000001FF00
0000000003FF80
0000000007FF80
000000000FFF80
000000001FFF80
000000003FFF00
000000007FFE00
06000000FFFC00
0F800001FFF800
1FC00003FFF000
3FE00007FFE000
7FF0000FFFC000
FFF8001FFF8000
FFFC003FFF0000
7FFE007FFE0000
3FFF00FFFC0000
1FFF81FFF80000
0FFFC3FFF00000
07FFE7FFE00000
03FFFFFFC00000
01FFFFFF800000
00FFFFFF000000
007FFFFE000000
003FFFFC000000
001FFFF8000000
000FFFF0000000
0007FFE0000000
0003FFC0000000
0001FF80000000
0000FF00000000
00007E00000000
00003C00000000
ENDCHAR
STARTCHAR 004F
ENCODING 79
SWIDTH 972 0
DWIDTH 50 0
BBX 49 49 0 -8
BITMAP
0D000000000000
3FFE0000000000
7FFFC000000000
7FFFF800000000
FFFFFF00000000
FFFFFFC0000000
7FFFFFE0000000
7FFFFFF8000000
3FFFFFFE000000
07FFFFFF000000
0007FFFF800000
00007FFFC00000
00001FFFE00000
000007FFF80000
000001FFF80000
3FF0007FFC0000
7FFE003FFE0000
7FFFC01FFF0000
7FFFF00FFF8000
FFFFF803FF8000
7FFFFE01FFC000
7FFFFF01FFE000
3FFFFF80FFE000
1FFFFFC07FF000
003FFFE03FF000
0007FFF03FF800
0001FFF81FF800
00007FFC0FFC00
00003FFC0FFC00
00001FFE07FE00
00000FFE07FE00
000007FF03FE00
000003FF03FF00
07F001FF83FF00
0FFC01FF81FF00
1FFE00FFC1FF00
3FFF00FFC1FF80
7FFF007FC1FF80
7FFF807FC0FF80
7FFF807FE0FF80
FFFF807FE0FF80
FFFF803FE0FF80
7FFF803FE0FF80
7FFF803FE0FF80
7FFF003FE0FF80
3FFF003FE0FF80
1FFE003FE07F80
0FFC001FC07F00
07F0000F803E00
ENDCHAR
STARTCHAR 0050
ENCODING 80
SWIDTH 972 0
DWIDTH 50 0
BBX 46 52 2 -10
BITMAP
00003FF00000
0001FFFE0000
0007FFFF0000
000FFFFFC000
003FFFFFE000
007FFFFFF000
00FFFFFFF800
00FFFCFFFC00
01FFC00FFE00
03FF0007FE00
03FE0001FF00
07FC0001FF00
07F80000FF80
07F800007F80
0FF000007F80
0FF000003F80
0FF000003FC0
0FF000003FC0
0FF000003FC0
0FF000003FC0
0FF000003FC0
0FF000003FC0
0FF000003FC0
FFFFFFFFFFFC
FFFFFFFFFFFC
FFFFFFFFFFFC
FFFFFFFFFFFC
FFFFFFFFFFFC
FFFFFFFFFFFC
FFFFFFFFFFFC
FFFFF07FFFFC
FFFFF03FFFFC
FFFFE03FFFFC
FFFFE03FFFFC
FFFFF03FFFFC
FFFFF03FFFFC
FFFFF87FFFFC
FFFFF87FFFFC
FFFFF87FFFFC
FFFFF87FFFFC
FFFFF87FFFFC
FFFFF87FFFFC
FFFFF07FFFFC
FFFFF07FFFFC
FFFFF07FFFFC
FFFFFFFFFFFC
FFFFFFFFFFFC
FFFFFFFFFFFC
FFFFFFFFFFFC
FFFFFFFFFFFC
FFFFFFFFFFFC
FFFFFFFFFFFC
ENDCHAR
STARTCHAR 0051
ENCODING 81
SWIDTH 972 0
DWIDTH 50 0
BBX 49 49 0 -8
BITMAP
003FFFFFFE0000
003FFFFFFE0000
003FFFFFFE0000
003FFFFFFE0000
003FFFFFFE0000
003FFFFFFE0000
003FFFFFFE0000
003FFFFFFE0000
003FFFFFFE0000
003FFFFFFE0000
003FFFFFFE0000
003FFFFFFE0000
003FFFFFFE0000
003FFFFFFE0000
003FFFFFFE0000
003FFFFFFE0000
003FFFFFFE0000
003FFFFFFE0000
000000E0000000
000000E0000000
000000E0000000
000000E0000000
000000E0000000
000000E0000000
000000E0000000
000000E0000000
003FFFFFFF8000
003FFFFFFF8000
00300000018000
00300000018000
00300000018000
00300000018000
FFFFF807FFFF80
FFFFF807FFFF80
FFFFF807FFFF80
FFFFF807FFFF80
FFFFF807FFFF80
FFFFF807FFFF80
FFFFF807FFFF80
FFFFF807FFFF80
FFFFF807FFFF80
FFFFF807FFFF80
FFFFF807FFFF80
FFFFF807FFFF80
FFFFF807FFFF80
FFFFF807FFFF80
FFFFF807FFFF80
FFFFF807FFFF80
FFFFF807FFFF80
ENDCHAR
STARTCHAR 0052
ENCODING 82
SWIDTH 972 0
DWIDTH 50 0
BBX 49 29 0 2
BITMAP
00001800000000
00001C00000000
00001F00000000
00000F80000000
00000FC0000000
001FFFF0FE0000
01FFFFF8FFC000
03FFFFFCFFF000
0FFFFFFEFFF800
1FFFFFFCFFFC00
1FFFFFF8FFFE00
3FFFFFE0FFFF00
3F800FC0007F00
7F001F80003F80
7E001F00003F80
7E001C00001F80
FE001800001F80
FE000000001F80
FE000000001F80
7E000000001F80
7F000000003F80
7F000000003F80
3FC0000000FF00
3FFFFFFFFFFF00
1FFFFFFFFFFE00
0FFFFFFFFFFC00
07FFFFFFFFF800
03FFFFFFFFF000
00FFFFFFFFC000
ENDCHAR
STARTCHAR 0053
ENCODING 83
SWIDTH 972 0
DWIDTH 50 0
BBX 49 41 0 -4
BITMAP
00000000600000
00000001F00000
00000003F80000
00000007FC0000
0000000FFE0000
0000001FFF0000
0000003FFF8000
0000007FFFC000
7FFFF8FFFFE000
FFFFFDFFFFF000
FFFFFBFFFFF800
FFFFF7FFFFFC00
FFFFEFFFFFFE00
FFFFDFFFFFFF00
FFFF9FFFFFFF80
FFFFBFF3FCFF80
FF801FC3FC3F80
FF001F03FC0F00
FE3FC0FBFDE000
FE7FF7FBFDFF80
FE7FFFFBFDFF80
FEFFFFFBFDFF80
FCFFFFFBFDFF80
FCFFFFFBFDFF00
FCFFFFFBFDFF00
F9FFFFFBFDFF00
F9FFFFFBFDFF00
F9FFFFFBFDFE00
FBFFFFFBFDFE00
F3FFFFFBFDFE00
F3FFFFFBFDFC00
F3FFFFFBFDFC00
E7FFFFF9F9FC00
E7FFFFFC03FC00
E7FFFFFFFFF800
EFFFFFFFFFF800
CFFFFFFFFFF800
4FFFFFFFFFF000
0FFFFFFFFFF000
1FFFFFFFFFF000
0FFFFFFFFFE000
ENDCHAR
STARTCHAR 0054
ENCODING 84
SWIDTH 972 0
DWIDTH 50 0
BBX 49 49 0 -8
BITMAP
000001F0000000
00007FFF000000
0001FFFFE00000
0007FFFFF80000
001FFFFFFC0000
003FFFFFFF0000
007FFFFFFF8000
01FFFFFFFFC000
01FFE003FFE000
03FF80007FF000
07FE00003FF800
0FFE00000FF800
0FFF000007FC00
1FFF800003FC00
1FFFC00001FE00
3FCFE00001FE00
3FC7F00000FF00
7F83F80000FF00
7F81FC00007F00
7F00FE00007F80
7F007F00007F80
7F003F80003F80
FF001FC0003F80
FF000FE0003F80
FF0007F0003F80
FF0003F8003F80
FF0001FC003F80
FF0000FE003F80
7F00007F003F80
7F00003F807F80
7F80001FC07F80
7F80000FE07F00
3F800007F0FF00
3FC00003F8FF00
3FE00001FDFE00
1FE00000FFFE00
1FF000007FFC00
0FF800003FFC00
07FC00001FF800
07FF00003FF000
03FFC000FFF000
01FFF807FFE000
00FFFFFFFFC000
007FFFFFFF8000
003FFFFFFE0000
000FFFFFFC0000
0007FFFFF00000
0000FFFFC00000
00001FFE000000
ENDCHAR
STARTCHAR 0055
ENCODING 85
SWIDTH 972 0
DWIDTH 50 0
BBX 49 43 0 -5
BITMAP
00000040000000
000000E0000000
000001E0000000
000003E0000000
000007E0000000
00000FE0000000
00001FE0000000
00003FE0000000
00007FE0000000
0000FFE0000000
0001FFE0000000
0003FFE0000000
0007FFE0000000
FFFFFFE0000000
FFFFFFE0000000
FFFFFFE0000000
FFFFFFE0000000
FFFFFFE0000000
FFFFFFE0000000
FFFFFFE0FFFF80
FFFFFFE0FFFF80
FFFFFFE0FFFF80
FFFFFFE0FFFF80
FFFFFFE0FFFF80
FFFFFFE0000000
FFFFFFE0000000
FFFFFFE0000000
FFFFFFE0000000
FFFFFFE0000000
FFFFFFE0000000
0007FFE0000000
0003FFE0000000
0001FFE0000000
0000FFE0000000
00007FE0000000
00003FE0000000
00001FE0000000
00000FE0000000
00000FE0000000
000007E0000000
000003E0000000
000001E0000000
000000E0000000
ENDCHAR
STARTCHAR 0056
ENCODING 86
SWIDTH 972 0
DWIDTH 50 0
BBX 49 45 0 -6
BITMAP
00000020000000
00000070000000
000000F0000000
000001F0000000
000003F0000000
000007F0000000
00000FF0000000
00001FF0000000
00003FF0000000
00007FF0000000
00007FF0000000
0000FFF0000000
0001FFF0000000
0003FFF0000000
7FFFFFF007E000
FFFFFFF007E000
FFFFFFF007E000
FFFFFFF007E000
FFFFFFF007E000
FFFFFFF007E000
FFFFFFF1FFFF80
FFFFFFF1FFFF80
FFFFFFF1FFFF80
FFFFFFF1FFFF80
FFFFFFF1FFFF80
FFFFFFF1FFFF80
FFFFFFF007E000
FFFFFFF007E000
FFFFFFF007E000
FFFFFFF007E000
FFFFFFF007E000
7FFFFFF007E000
0003FFF0000000
0001FFF0000000
0000FFF0000000
00007FF0000000
00003FF0000000
00001FF0000000
00000FF0000000
000007F0000000
000003F0000000
000003F0000000
000001F0000000
000000F0000000
00000070000000
ENDCHAR
STARTCHAR 0057
ENCODING 87
SWIDTH 972 0
DWIDTH 50 0
BBX 49 48 0 -8
BITMAP
003C00001FC000
01FFC000FFF000
07FFE003FFF800
0FFFF007FFFC00
1FFFF80FFFFE00
3FFFFC1FFFFF00
7FFFFE3FFFFF00
7FFFFE3FFFFF80
7FFFFF7FFFFF80
FFFFFFFFFFFF80
FFFFFFFFFFFF80
FFFFFFFFFFFF80
7FFFFFFFFFFF80
7FFFFFFFFFFF80
7FFFFFFFFFFF80
7FFFFFFFFFFF80
3FFFFFFFFFFF80
3FFFFFFFFFFF00
1FFFFFFFFFFE00
0FFFFFFFFFFE00
0FFFFFFFFFFC00
07FFFFFFFFF800
03FFFFFFFFF000
01FFFFFFFFE000
00FFFFFFFFE000
007FFFFFFFC000
003FFFFFFF8000
001FFFFFFF0000
000FFFFFFE0000
0007FFFFFC0000
0003FFFFF80000
0001FFFFF00000
0000FFFFE00000
00007FFFC00000
00003FFF800000
00001FFF000000
00000FFE000000
000007FC000000
000003F8000000
000003F8000000
000001F0000000
000001E0000000
000000E0000000
000000C0000000
000000C0000000
00000040000000
00000040000000
00000040000000
ENDCHAR
STARTCHAR 0058
ENCODING 88
SWIDTH 972 0
DWIDTH 50 0
BBX 40 52 5 -10
BITMAP
0078000000
00FC000000
00FC000000
00FC000000
00FC000000
00FC000000
00FC000000
00FC000000
00FC000000
00FC000000
00FC000000
00FC000000
00FC000000
00FC000000
00FC180000
00FC7E0000
00FC7E0000
00FC7E1E00
00FC7E3E00
00FC7E3E1F
00FC7E3E1F
60FC7E3E1F
F8FC7E3E1F
F8FEFF7FBF
F8FFFFFFFF
F8FFFFFFFF
F8FFFFFFFF
F8FFFFFFFF
F8FFFFFFFF
F8FFFFFFFF
F8FFFFFFFF
F8FFFFFFFF
F8FFFFFFFF
FFFFFFFFFF
FFFFFFFFFF
FFFFFFFFFF
FFFFFFFFFF
FFFFFFFFFF
7FFFFFFFFF
7FFFFFFFFF
3FFFFFFFFF
1FFFFFFFFF
1FFFFFFFFF
0FFFFFFFFF
07FFFFFFFF
07FFFFFFFF
03FFFFFFFF
01FFFFFFFF
01FFFFFFFF
00FFFFFFFF
007FFFFFFE
003FFFFFF8
ENDCHAR
STARTCHAR 0059
ENCODING 89
SWIDTH 972 0
DWIDTH 50 0
BBX 37 52 6 -10
BITMAP
0000780000
0000F80000
0000F80000
0000F80000
0020F82000
0078F87800
00F8F8F800
00F8F8F800
00F8F8F800
00F8F8F800
00F8F8F800
00F8F8F878
00F8F8F8F8
00F8F8F8F8
00F8F8F8F8
00F8F8F8F8
00F8F8F8F8
00F8F8F8F8
00F8F8F8F8
00F8F8F8F8
00F8F8F8F8
00F8F8F8F8
00F8F8F8F8
00F8F8F8F8
70F8F8F8F8
F8FCFCF8F8
F8FFFFFFF8
F8FFFFFFF8
F8FFFFFFF8
F8FFFFFFF8
F8FFFFFFF8
F8FFFFFFF8
F8FFFFFFF8
F8FFFFFFF8
FCFFFFFFF8
FFFFFFFFF8
FFFFFFFFF8
FFFFFFFFF8
7FFFFFFFF8
7FFFFFFFF8
3FFFFFFFF8
1FFFFFFFF8
1FFFFFFFF8
0FFFFFFFF8
07FFFFFFF8
07FFFFFFF8
03FFFFFFF8
03FFFFFFF8
01FFFFFFF8
00FFFFFFF8
007FFFFFF0
003FFFFFC0
ENDCHAR
STARTCHAR 005A
ENCODING 90
SWIDTH 972 0
DWIDTH 50 0
BBX 50 50 0 -9
BITMAP
0000000000E000
0000000000F000
0000001800F000
0000003C00F800
0000007C007800
000000FC007800
000001FC003C00
000003FC003C00
000007FC383E00
00000FFC3C3E00
00001FFC3C1E00
00003FFC3E1F00
00003FFC1E1F00
00007FFC1E1F00
0000FFFC1F0F00
0001FFFC1F0F80
7FFFFFFC0F0F80
FFFFFFFC0F0F80
FFFFFFFC0F0F80
FFFFFFFC0F0F80
FFFFFFFC0F8F80
FFFFFFFC0F8F80
FFFFFFFC0F8F80
FFFFFFFC0F8F80
FFFFFFFC0F8FC0
FFFFFFFC0F8F80
FFFFFFFC0F8F80
FFFFFFFC0F8F80
FFFFFFFC0F8F80
FFFFFFFC0F0F80
FFFFFFFC0F0F80
FFFFFFFC0F0F80
FFFFFFFC0F0F80
FFFFFFFC1F0F80
FFFFFFFC1F0F00
0003FFFC1E1F00
0001FFFC1E1F00
0000FFFC1E1F00
00007FFC3C1E00
00003FFC3C3E00
00001FFC383E00
00000FFC383C00
000007FC003C00
000003FC007C00
000001FC007800
000000FC00F800
0000007C00F000
0000007C00F000
0000003C00E000
00000018000000
ENDCHAR
STARTCHAR 005B
ENCODING 91
SWIDTH 972 0
DWIDTH 50 0
BBX 48 48 1 -8
BITMAP
800000000000
E00000000000
F80000000000
FE0000000000
FF8000000000
FFE000000000
FFF800000000
FFFE00000000
FFFF80000000
FFFFE0000000
FFFFF8000000
FFFFFE000000
FFFFFF800000
FFFFFFE00000
FFFFFFF80000
FFFFFFFE0000
FFFFFFFF8000
FFFFFFFFE000
FFFFFFFFF800
FFFFFFFFFE00
FFFFFFFFFF80
FFFFFFFFFFE0
FFFFFFFFFFF8
FFFFFFFFFFFF
FFFFFFFFFFFE
FFFFFFFFFFF8
FFFFFFFFFFE0
FFFFFFFFFF80
FFFFFFFFFE00
FFFFFFFFF800
FFFFFFFFE000
FFFFFFFF8000
FFFFFFFE0000
FFFFFFF80000
FFFFFFE00000
FFFFFF800000
FFFFFE000000
FFFFF8000000
FFFFE0000000
FFFF80000000
FFFE00000000
FFF800000000
FFE000000000
FF0000000000
FC0000000000
F00000000000
C00000000000
800000000000
ENDCHAR
STARTCHAR 005C
ENCODING 92
SWIDTH 972 0
DWIDTH 50 0
BBX 49 49 0 -8
BITMAP
FFFFFFFFFFFF80
7FFFFFFFFFFF80
7FFFFFFFFFFF00
3FFFFFFFFFFF00
3FFFFFFFFFFE00
1FFFFFFFFFFE00
1FFFFFFFFFFC00
0FFFFFFFFFFC00
0FFFFFFFFFF800
07FFFFFFFFF800
07FFFFFFFFF000
03FFFFFFFFF000
03FFFFFFFFE000
01FFFFFFFFE000
01FFFFFFFFC000
00FFFFFFFFC000
00FFFFFFFF8000
007FFFFFFF8000
007FFFFFFF0000
003FFFFFFF0000
003FFFFFFE0000
001FFFFFFE0000
001FFFFFFC0000
000FFFFFFC0000
000FFFFFF80000
0007FFFFF80000
0007FFFFF00000
0003FFFFF00000
0003FFFFE00000
0001FFFFE00000
0001FFFFC00000
0000FFFFC00000
0000FFFF800000
00007FFF800000
00007FFF000000
00003FFF000000
00003FFE000000
00001FFE000000
00001FFC000000
00000FFC000000
00000FF8000000
000007F8000000
000007F0000000
000003F0000000
000003E0000000
000001E0000000
000001C0000000
000000C0000000
00000080000000
ENDCHAR
STARTCHAR 005D
ENCODING 93
SWIDTH 972 0
DWIDTH 50 0
BBX 49 49 0 -8
BITMAP
00000000000080
00000000000180
00000000000780
00000000001F80
00000000007F80
0000000001FF80
0000000007FF80
000000001FFF80
000000007FFF80
00000001FFFF80
00000007FFFF80
0000001FFFFF80
0000007FFFFF80
000001FFFFFF80
000007FFFFFF80
00001FFFFFFF80
00007FFFFFFF80
0001FFFFFFFF80
0007FFFFFFFF80
001FFFFFFFFF80
007FFFFFFFFF80
01FFFFFFFFFF80
07FFFFFFFFFF80
1FFFFFFFFFFF80
FFFFFFFFFFFF80
3FFFFFFFFFFF80
0FFFFFFFFFFF80
03FFFFFFFFFF80
00FFFFFFFFFF80
003FFFFFFFFF80
000FFFFFFFFF80
0003FFFFFFFF80
0000FFFFFFFF80
00003FFFFFFF80
00000FFFFFFF80
000003FFFFFF80
000000FFFFFF80
0000003FFFFF80
0000000FFFFF80
00000003FFFF80
00000000FFFF80
000000003FFF80
000000000FFF80
0000000003FF80
0000000000FF80
00000000003F80
00000000000F80
00000000000380
00000000000080
ENDCHAR
STARTCHAR 005E
ENCODING 94
SWIDTH 972 0
DWIDTH 50 0
BBX 49 18 0 7
BITMAP
00800000008000
00800000004000
01000000006000
03000000003000
07000000003800
0E000000003C00
1E000000001E00
3FFFFFFFFFFF00
FFFFFFFFFFFF80
7FFFFFFFFFFF80
3FFFFFFFFFFF00
1E000000001E00
0F000000003C00
07000000003800
03000000003000
01800000006000
00800000004000
00400000008000
ENDCHAR
STARTCHAR 005F
ENCODING 95
SWIDTH 972 0
DWIDTH 50 0
BBX 18 52 16 -10
BITMAP
00C000
01E000
03F000
07F800
0FFC00
1FFE00
3FFF00
71E780
81E0C0
01E000
01E000
01E000
01E000
01E000
01E000
01E000
01E000
01E000
01E000
01E000
01E000
01E000
01E000
01E000
01E000
01E000
01E000
01E000
01E000
01E000
01E000
01E000
01E000
01E000
01E000
01E000
01E000
01E000
01E000
01E000
01E000
01E000
01E000
C1E0C0
79EF00
3FFE00
1FFC00
0FF800
07F000
03E000
01C000
008000
ENDCHAR
STARTCHAR 0060
ENCODING 96
SWIDTH 972 0
DWIDTH 50 0
BBX 18 52 16 -10
BITMAP
01E000
01E000
01E000
01E000
01E000
01E000
01E000
01E000
01E000
01E000
01E000
01E000
01E000
01E000
01E000
01E000
01E000
01E000
01E000
01E000
01E000
01E000
01E000
01E000
01E000
01E000
01E000
01E000
01E000
01E000
01E000
01E000
01E000
01E000
01E000
01E000
01E000
01E000
01E000
01E000
01E000
01E000
01E000
C1E0C0
39E780
1FFF00
0FFE00
07FC00
03F800
01F000
00E000
004000
ENDCHAR
STARTCHAR 0061
ENCODING 97
SWIDTH 972 0
DWIDTH 50 0
BBX 50 28 0 2
BITMAP
00000000004000
00000000004000
0000000000E000
0000FFE000E000
0003FFFC01E000
000FFFFF01F000
001FFFFFC3F000
007FFFFFF3F000
00FFFFFFFFF000
00FFFFFFFFF800
01FFFFFFFFF800
03FFFFFFFFF800
07FFFFFFFFF800
07FFFFFFFFFC00
0FF001FFFFFC00
1F80007FFFFC00
1E00001FFFFC00
3C00000FFFFE00
3000000FFFFE00
6000000FFFFE00
4000001FFFFE00
8000003FFFFF00
0000007FFFFF00
000000FFFFFF00
000001FFFFFF80
000001FFFFFF80
000003FFFFFF80
000007FFFFFFC0
ENDCHAR
STARTCHAR 0062
ENCODING 98
SWIDTH 972 0
DWIDTH 50 0
BBX 48 28 1 2
BITMAP
010000000000
010000000000
010000000000
038001FF0000
03C00FFFC000
03C03FFFF000
07E1FFFFFC00
07E3FFFFFE00
07FFFFFFFF00
07FFFFFFFF80
0FFFFFFFFFC0
0FFFFFFFFFC0
0FFFFFFFFFE0
0FFFFFFFFFF0
1FFFFFE00FF0
1FFFFF0001F8
1FFFFC00007C
1FFFF800001C
3FFFF000000E
3FFFF8000006
3FFFFC000003
7FFFFE000001
7FFFFF000000
7FFFFF800000
7FFFFF800000
FFFFFFC00000
FFFFFFE00000
FFFFFFF00000
ENDCHAR
STARTCHAR 0063
ENCODING 99
SWIDTH 972 0
DWIDTH 50 0
BBX 48 52 1 -10
BITMAP
00000FF80000
00001FFC0000
00003FFC0000
00003FFC0000
00003FFC0000
00003FFC0000
00003FFC0000
00003FFC0000
00003FFC0000
00003FFC0000
00003FFC0000
00003FFC0000
00003FFC0000
00003FFC0000
00003FFC0000
00003FFC0000
00003FFC0000
00003FFC0000
00003FFC0000
00003FFC0000
00003FFC0000
00003FFC0000
00003FFC0000
00003FFC0000
7C003FFC003E
FF003FFC01FE
FFC03FFC07FF
FFF03FFC1FFF
FFFC3FFC7FFF
FFFF3FFDFFFF
FFFFFFFFFFFF
7FFFFFFFFFFE
3FFFFFFFFFFC
1FFFFFFFFFF8
0FFFFFFFFFF0
07FFFFFFFFE0
03FFFFFFFFC0
01FFFFFFFF80
00FFFFFFFF00
007FFFFFFE00
003FFFFFFC00
001FFFFFF800
000FFFFFF000
0007FFFFE000
0003FFFFC000
0001FFFF8000
0000FFFF0000
00007FFE0000
00003FFC0000
00001FF80000
00000FF00000
000007E00000
ENDCHAR
STARTCHAR 0064
ENCODING 100
SWIDTH 972 0
DWIDTH 50 0
BBX 48 49 1 -8
BITMAP
0000000003C0
000000000FE0
000000001FF0
000000003FF8
040000007FFC
3F000000FFFE
7F800001FFFF
FF800003FFFF
FFC00007FFFF
FFC0000FFFFF
FFE0001FFFFE
FFE0003FFFFC
FFE0007FFFF8
FFF000FFFFF0
FFF001FFFFE0
FFF003FFFFC0
FFF807FFFF80
FFF80FFFFF00
FFF81FFFFE00
FFFC3FFFFC00
FFFC7FFFF800
FFFCFFFFF000
FFFFFFFFE000
FFFFFFFFC000
FFFFFFFF8000
FFFFFFFF0000
FFFFFFFE0000
FFFFFFFC0000
FFFFFFF80000
FFFFFFF00000
FFFFFFE00000
FFFFFFC00000
FFFFFF800000
FFFFFF800000
FFFFFFF00000
FFFFFFFC0000
FFFFFFFF8000
FFFFFFFFF000
FFFFFFFFFE00
FFFFFFFFFF80
FFFFFFFFFFC0
FFFFFFFFFFE0
FFFFFFFFFFF0
FFFFFFFFFFF0
FFFFFFFFFFE0
FFFFFFFFFFE0
7FFFFFFFFFE0
3FFFFFFFFFC0
1FFFFFFFFF00
ENDCHAR
STARTCHAR 0065
ENCODING 101
SWIDTH 972 0
DWIDTH 50 0
BBX 48 49 1 -8
BITMAP
03C000000000
07E000000000
0FF000000000
1FF800000000
3FFC00000040
7FFE000000F8
FFFF000001FC
FFFF800001FE
FFFFC00003FF
FFFFE00003FF
7FFFF00007FF
3FFFF80007FF
3FFFFC000FFF
1FFFFE000FFF
0FFFFF000FFF
07FFFF801FFF
03FFFFC01FFF
01FFFFE01FFF
00FFFFF03FFF
007FFFF83FFF
003FFFFC3FFF
001FFFFE7FFF
000FFFFF7FFF
0007FFFFFFFF
0003FFFFFFFF
0001FFFFFFFF
0000FFFFFFFF
00007FFFFFFF
00003FFFFFFF
00001FFFFFFF
00000FFFFFFF
000007FFFFFF
000003FFFFFF
000001FFFFFF
00000FFFFFFF
00007FFFFFFF
0003FFFFFFFF
001FFFFFFFFF
007FFFFFFFFF
01FFFFFFFFFF
07FFFFFFFFFF
0FFFFFFFFFFF
0FFFFFFFFFFF
0FFFFFFFFFFF
0FFFFFFFFFFF
07FFFFFFFFFE
07FFFFFFFFFE
03FFFFFFFFFC
00FFFFFFFFF0
ENDCHAR
STARTCHAR 0066
ENCODING 102
SWIDTH 972 0
DWIDTH 50 0
BBX 49 46 0 -7
BITMAP
00000300000000
00000FC0000000
00001FE0000000
00003FE0000000
00007FE0000000
0000FFE0000000
0001FFE0000000
0003FFC0000000
0007FFC0000000
000FFF80000000
001FFF80000000
003FFF00000000
007FFF00000000
00FFFE00000000
01FFFE00000000
03FFFC00000000
07FFFC00000000
0FFFF800000000
1FFFFFFFFFFF00
3FFFFFFFFFFF80
7FFFFFFFFFFF80
7FFFFFFFFFFF80
FFFFFFFFFFFF80
FFFFFFFFFFFF80
7FFFFFFFFFFF80
7FFFFFFFFFFF80
3FFFFFFFFFFF80
1FFFFFFFFFFF80
0FFFFFFFFFFF00
07FFFC00000000
03FFFC00000000
01FFFE00000000
00FFFE00000000
007FFF00000000
003FFF00000000
001FFF80000000
000FFF80000000
0007FFC0000000
0003FFC0000000
0001FFC0000000
0000FFE0000000
00007FE0000000
00003FE0000000
00001FE0000000
00000FC0000000
00000780000000
ENDCHAR
STARTCHAR 0067
ENCODING 103
SWIDTH 972 0
DWIDTH 50 0
BBX 49 46 0 -7
BITMAP
00000078000000
000001FC000000
000001FE000000
000001FF000000
000001FF800000
000001FFC00000
000001FFE00000
000000FFF00000
000000FFF80000
0000007FFC0000
0000007FFE0000
0000003FFF0000
0000003FFF8000
0000001FFFC000
0000001FFFE000
0000000FFFF000
0000000FFFF800
00000007FFFC00
7FFFFFFFFFFE00
7FFFFFFFFFFF00
FFFFFFFFFFFF80
FFFFFFFFFFFF80
FFFFFFFFFFFF80
FFFFFFFFFFFF80
FFFFFFFFFFFF80
FFFFFFFFFFFF80
7FFFFFFFFFFF00
7FFFFFFFFFFE00
3FFFFFFFFFFC00
0000000FFFF800
0000000FFFF000
0000001FFFE000
0000001FFFC000
0000003FFF8000
0000003FFF0000
0000007FFE0000
0000007FFC0000
000000FFF80000
000000FFF00000
000001FFE00000
000001FFC00000
000001FF800000
000001FF000000
000001FE000000
000000FC000000
00000070000000
ENDCHAR
STARTCHAR 0068
ENCODING 104
SWIDTH 972 0
DWIDTH 50 0
BBX 48 52 1 -10
BITMAP
000007E00000
00000FF00000
00001FF80000
00003FFC0000
00007FFE0000
0000FFFF0000
0001FFFF8000
0003FFFFC000
0007FFFFE000
000FFFFFF000
001FFFFFF800
003FFFFFFC00
007FFFFFFE00
00FFFFFFFF00
01FFFFFFFF80
03FFFFFFFFC0
07FFFFFFFFE0
0FFFFFFFFFF0
1FFFFFFFFFF8
3FFFFFFFFFFC
7FFFFFFFFFFE
FFFFFFFFFFFF
FFFFBFFDFFFF
FFFE3FFC7FFF
FFF83FFC1FFF
FFE03FFC07FF
FF803FFC01FF
7E003FFC007E
00003FFC0000
00003FFC0000
00003FFC0000
00003FFC0000
00003FFC0000
00003FFC0000
00003FFC0000
00003FFC0000
00003FFC0000
00003FFC0000
00003FFC0000
00003FFC0000
00003FFC0000
00003FFC0000
00003FFC0000
00003FFC0000
00003FFC0000
00003FFC0000
00003FFC0000
00003FFC0000
00003FFC0000
00003FFC0000
00001FFC0000
00000FF80000
ENDCHAR
STARTCHAR 0069
ENCODING 105
SWIDTH 972 0
DWIDTH 50 0
BBX 49 50 0 -9
BITMAP
0FFFFFFFFFC000
3FFFFFFFFFE000
7FFFFFFFFFF000
7FFFFFFFFFF800
7FFFFFFFFFF800
FFFFFFFFFFF800
FFFFFFFFFFF800
FFFFFFFFFFF800
FFFFFFFFFFF000
FFFFFFFFFFC000
FFFFFFFFFF0000
FFFFFFFFFC0000
FFFFFFFFE00000
FFFFFFFF000000
FFFFFFF8000000
FFFFFFC0000000
FFFFFFC0000000
FFFFFFE0000000
FFFFFFF0000000
FFFFFFF8000000
FFFFFFFC000000
FFFFFFFE000000
FFFFFFFF000000
FFFFFFFF800000
FFFFFFFFC00000
FFFFFFFFE00000
FFFFFFFFF00000
FFFE7FFFF80000
FFFE3FFFFC0000
FFFE1FFFFE0000
FFFC0FFFFF0000
FFFC07FFFF8000
FFFC03FFFFC000
FFF801FFFFE000
FFF800FFFFF000
FFF8007FFFF800
FFF0003FFFFC00
FFF0001FFFFE00
FFF0000FFFFF00
FFE00007FFFF80
7FE00003FFFF80
7FC00001FFFF80
3FC00000FFFF80
1F8000007FFF80
060000003FFF00
000000001FFE00
000000000FFC00
0000000007F800
0000000003F000
0000000000C000
ENDCHAR
STARTCHAR 006A
ENCODING 106
SWIDTH 972 0
DWIDTH 50 0
BBX 49 50 0 -9
BITMAP
00FFFFFFFFFC00
01FFFFFFFFFE00
03FFFFFFFFFF00
07FFFFFFFFFF80
07FFFFFFFFFF80
07FFFFFFFFFF80
07FFFFFFFFFF80
07FFFFFFFFFF80
03FFFFFFFFFF80
00FFFFFFFFFF80
003FFFFFFFFF80
000FFFFFFFFF80
0001FFFFFFFF80
00003FFFFFFF80
000007FFFFFF80
000000FFFFFF80
000001FFFFFF80
000003FFFFFF80
000007FFFFFF80
00000FFFFFFF80
00001FFFFFFF80
00003FFFFFFF80
00007FFFFFFF80
0000FFFFFFFF80
0001FFFFFFFF80
0003FFFFFFFF80
0007FFFFFFFF80
000FFFFF9FFF80
001FFFFF1FFF80
003FFFFE1FFF80
007FFFFC0FFF80
00FFFFF80FFF80
01FFFFF00FFF80
03FFFFE007FF80
07FFFFC007FF80
0FFFFF8007FF80
1FFFFF0003FF80
3FFFFE0003FF80
7FFFFC0003FF80
7FFFF80001FF80
FFFFF00001FF80
FFFFE00000FF80
7FFFC00000FF00
7FFF8000007E00
3FFF0000001000
1FFE0000000000
0FFC0000000000
07F80000000000
03F00000000000
00800000000000
ENDCHAR
STARTCHAR 006B
ENCODING 107
SWIDTH 972 0
DWIDTH 50 0
BBX 49 42 0 -5
BITMAP
00000008000000
0000000C000000
0000000E000000
0000000F000000
0000000F800000
0000000FC00000
0000000FE00000
0000000FF00000
0000000FF80000
0000000FFC0000
00003FFFFE0000
0003FFFFFF0000
001FFFFFFF8000
007FFFFFFFC000
00FFFFFFFFE000
01FFFFFFFFF000
03FFFFFFFFF800
07FFFFFFFFFC00
0FFFFFFFFFFE00
0FFFFFFFFFFF00
1FFFFFFFFFFF80
1FFFFFFFFFFF80
3FFFFFFFFFFE00
3FFF007FFFFC00
3FF8007FFFF000
7FF0007FFFC000
7FC000FFFF8000
7F8000FFFE0000
7F0000FFF80000
7E0000FFE00000
7C0000FFC00000
FC0000FF000000
F80001FC000000
F00001F0000000
F00001E0000000
E0000180000000
E0000200000000
C0000000000000
40000000000000
40000000000000
40000000000000
80000000000000
ENDCHAR
STARTCHAR 006C
ENCODING 108
SWIDTH 1070 0
DWIDTH 55 0
BBX 54 47 0 -7
BITMAP
00000080000000
00000100000000
00000300000000
00000700000000
00000F00000000
00001F00000000
00003F00000000
00007F00000000
0000FF00000000
0001FF00000000
0003FF00000000
0007FF00000000
000FFFFFF00000
001FFFFFFE0000
003FFFFFFFC000
007FFFFFFFF000
00FFFFFFFFFC00
01FFFFFFFFFE00
03FFFFFFFFFF00
07FFFFFFFFFF80
0FFFFFFFFFFFC0
1FFFFFFFFFFFC0
3FFFFFFFFFFFE0
7FFFFFFFFFFFF0
FFFFFFFFFFFFF0
3FFFFFFFFFFFF0
0FFFFFE00FFFF8
03FFFFE001FFF8
01FFFFF0007FF8
007FFFF0001FFC
001FFFF0000FFC
0007FFF00007FC
0003FFF00003FC
0000FFF00001FC
00003FF80000FC
00001FF800007C
000007F800007C
000001F800003C
0000007800003C
0000003800001C
0000000C00001C
0000000000000C
0000000000000C
00000000000004
00000000000004
00000000000004
00000000000004
ENDCHAR
STARTCHAR 006D
ENCODING 109
SWIDTH 972 0
DWIDTH 50 0
BBX 44 52 3 -10
BITMAP
0007FFFC0000
0007FFFC0000
0007FFFC0000
0007FFFC0000
0007FFFC0000
0007FFFC0000
0007FFFC0000
0007FFFC0000
0007FFFC0000
0007FFFC0000
0007FFFC0000
0007FFFC0000
0007FFFC0000
0007FFFC0000
0007FFFC0000
0007FFFC0000
0007FFFC0000
0007FFFC0000
0007FFFC0000
0007FFFC0000
0007FFFC0000
0007FFFC0000
0007FFFC0000
0007FFFC0000
0007FFFC0000
0007FFFC0000
0007FFFC0000
0007FFFC0000
8007FFFC0010
7FFFFFFFFFE0
3FFFFFFFFFC0
1FFFFFFFFF80
0FFFFFFFFF00
07FFFFFFFE00
03FFFFFFFC00
01FFFFFFF800
00FFFFFFF000
00FFFFFFE000
007FFFFFC000
003FFFFFC000
001FFFFF8000
000FFFFF0000
0007FFFE0000
0003FFFC0000
0001FFF80000
0000FFF00000
00007FE00000
00003FC00000
00001F800000
00000F000000
00000E000000
000004000000
ENDCHAR
STARTCHAR 006E
ENCODING 110
SWIDTH 972 0
DWIDTH 50 0
BBX 49 41 0 -4
BITMAP
00000200000000
00000400000000
00000C00000000
00001C00000000
00003C00000000
00007C00000000
0000FC00000000
0001FC00000000
0003FC00000000
000FFC00000000
001FFC00000000
003FFC00000000
007FFFFFFFFF80
00FFFFFFFFFF80
01FFFFFFFFFF80
03FFFFFFFFFF80
07FFFFFFFFFF80
0FFFFFFFFFFF80
1FFFFFFFFFFF80
3FFFFFFFFFFF80
FFFFFFFFFFFF80
7FFFFFFFFFFF80
3FFFFFFFFFFF80
1FFFFFFFFFFF80
0FFFFFFFFFFF80
07FFFFFFFFFF80
01FFFFFFFFFF80
00FFFFFFFFFF80
007FFFFFFFFF80
003FFC00000000
001FFC00000000
000FFC00000000
0007FC00000000
0003FC00000000
0001FC00000000
0000FC00000000
00007C00000000
00003C00000000
00000C00000000
00000400000000
00000200000000
ENDCHAR
STARTCHAR 006F
ENCODING 111
SWIDTH 972 0
DWIDTH 50 0
BBX 49 41 0 -4
BITMAP
00000010000000
00000018000000
0000001C000000
0000001E000000
0000001F000000
0000001F800000
0000001FC00000
0000001FE00000
0000001FF00000
0000001FF80000
0000001FFC0000
0000001FFE0000
FFFFFFFFFF0000
FFFFFFFFFFC000
FFFFFFFFFFE000
FFFFFFFFFFF000
FFFFFFFFFFF800
FFFFFFFFFFFC00
FFFFFFFFFFFE00
FFFFFFFFFFFF00
FFFFFFFFFFFF80
FFFFFFFFFFFF80
FFFFFFFFFFFE00
FFFFFFFFFFFC00
FFFFFFFFFFF800
FFFFFFFFFFF000
FFFFFFFFFFE000
FFFFFFFFFFC000
FFFFFFFFFF8000
0000001FFF0000
0000001FFE0000
0000001FFC0000
0000001FF80000
0000001FF00000
0000001FC00000
0000001F800000
0000001F000000
0000001E000000
0000001C000000
00000018000000
00000010000000
ENDCHAR
STARTCHAR 0070
ENCODING 112
SWIDTH 972 0
DWIDTH 50 0
BBX 44 52 3 -10
BITMAP
000006000000
00000F000000
00001F000000
00003F800000
00003FC00000
00007FE00000
0000FFF00000
0001FFF80000
0003FFFC0000
0007FFFE0000
000FFFFF0000
001FFFFF8000
003FFFFFC000
007FFFFFE000
00FFFFFFF000
01FFFFFFF000
01FFFFFFF800
03FFFFFFFC00
07FFFFFFFE00
0FFFFFFFFF00
1FFFFFFFFF80
3FFFFFFFFFC0
7FFFFFFFFFE0
8007FFFC0010
0007FFFC0000
0007FFFC0000
0007FFFC0000
0007FFFC0000
0007FFFC0000
0007FFFC0000
0007FFFC0000
0007FFFC0000
0007FFFC0000
0007FFFC0000
0007FFFC0000
0007FFFC0000
0007FFFC0000
0007FFFC0000
0007FFFC0000
0007FFFC0000
0007FFFC0000
0007FFFC0000
0007FFFC0000
0007FFFC0000
0007FFFC0000
0007FFFC0000
0007FFFC0000
0007FFFC0000
0007FFFC0000
0007FFFC0000
0007FFFC0000
0007FFFC0000
ENDCHAR
STARTCHAR 0071
ENCODING 113
SWIDTH 972 0
DWIDTH 50 0
BBX 44 52 3 -10
BITMAP
000000020000
000000060000
000000070000
0000000F0000
0000001F8000
0000001FC000
0000003FC000
0000003FE000
0000007FE000
0000007FF000
000000FFF000
000001FFF800
000001FFFC00
000003FFFC00
FF0003FFFE00
FF0007FFFE00
FF0007FFFF00
FF000FFFFF00
FF001FFFFF80
FF001FFFFFC0
FF003FFFFFC0
FF003FFFFFE0
FF007FFFFFE0
FF00FFFFFFF0
FF00003FC000
FF00003FC000
FF00003FC000
FF00003FC000
FF00003FC000
FF00003FC000
FF00003FC000
FF00003FC000
FF00003FC000
FF00003FC000
FF00003FC000
FF00003FC000
FF00003FC000
FF00007FC000
FF80007FC000
FF8000FFC000
7FC000FF8000
7FE001FF8000
3FF007FF0000
3FFE3FFF0000
1FFFFFFE0000
1FFFFFFC0000
0FFFFFF80000
07FFFFF00000
01FFFFE00000
00FFFFC00000
003FFF000000
0007F8000000
ENDCHAR
STARTCHAR 0072
ENCODING 114
SWIDTH 972 0
DWIDTH 50 0
BBX 49 42 0 -5
BITMAP
00000200000000
00000E00000000
00001E00000000
00007E00000000
0001FE00000000
0007FE00000000
000FFE00000000
003FFE00000000
00FFFE00000000
03FFFFFFE00000
07FFFFFFFE0000
1FFFFFFFFF8000
7FFFFFFFFFE000
FFFFFFFFFFF000
1FFFFFFFFFF800
07FFFFFFFFFC00
03FFFFFFFFFE00
00FFFE000FFE00
003FFE0003FF00
001FFE0001FF00
0007FE0000FF80
0001FE00007F80
00007E00007F80
00003E00007F80
00000E00003F80
00000200003F80
00000000003F80
00000000007F80
00000000007F80
00000000007F80
0000000000FF80
0000000001FF00
0000000003FF00
000000000FFE00
0007FFFFFFFE00
0007FFFFFFFC00
0007FFFFFFF800
0007FFFFFFF000
0007FFFFFFE000
0007FFFFFF8000
0007FFFFFE0000
0007FFFFF00000
ENDCHAR
STARTCHAR 0073
ENCODING 115
SWIDTH 972 0
DWIDTH 50 0
BBX 49 38 0 -3
BITMAP
00003FFF000000
0003FFFFF00000
001FFFFFFC0000
007FFFFFFF0000
00FFFFFFFFC000
03FFFFFFFFE000
07FFFFFFFFF800
0FFFFFFFFFFC00
1FFFFFFFFFFC00
3FFFFFFFFFFE00
3FFFFFFFFFFF00
7FFFFFFFFFFF00
7FFFFFFFFFFF80
7FFFFFFFFFFF80
FFFFFFFFFFFF80
FFFFFFFFFFFF80
FFFFFFFFFFFF80
FFFFFFFFFFFF80
7FFFFFFFFFFF80
7FFFFFFFFFFF80
7FFFFFFFFFFF80
3FFFFFFFFFFF00
3FFFFFFFFFFE00
1FFFFFFFFFFE00
0FFFFFFFFFFC00
0FFFFFFFFFF800
03FFFFFFFFF000
01FFFFFFFFC000
00FFFFFFFF8000
003FFFFFFE0000
000FFFFFF00000
0001FFFF800000
00003FC0000000
00003F00000000
00007E00000000
00007C00000000
0001F000000000
00078000000000
ENDCHAR
STARTCHAR 0074
ENCODING 116
SWIDTH 972 0
DWIDTH 50 0
BBX 49 42 0 -5
BITMAP
3FFFFFFFFFFF00
7FFFFFFFFFFF80
FFFFFFFFFFFF80
FFFFFFFFFFFF80
FFFFFFFFFFFF80
FFFFFFFFFFFF80
FFFFFFFFFFFF80
FFFFFFFFFFFF80
FFFFFFFFFFFF80
FFFFFFFFFFFF80
FFFFFFFFFFFF80
FFFFFFFFFFFF80
FFFFFFFFFFFF80
FFFFFFFFFFFF80
FFFFFFFFFFFF80
FFFFFFFFFFFF80
FFFFFFFFFFFF80
FFFFFFFFFFFF80
FFFFFFFFFFFF80
FFFFFFFFFFFF80
FFFFFFFFFFFF80
FFFFFFFFFFFF80
FFFFFFFFFFFF80
FFFFFFFFFFFF80
FFFFFFFFFFFF80
FFFFFFFFFFFF80
FFFFFFFFFFFF80
FFFFFFFFFFFF80
FFFFFFFFFFFF80
FFFFFFFFFFFF80
7FFFFFFFFFFF80
3FFFFFFFFFFF00
000007F0000000
00000FC0000000
00000F80000000
00000F00000000
00001E00000000
00001C00000000
00003000000000
00002000000000
00004000000000
00008000000000
ENDCHAR
STARTCHAR 0075
ENCODING 117
SWIDTH 972 0
DWIDTH 50 0
BBX 49 38 0 -3
BITMAP
00007FFF800000
0007FFFFF00000
001FFFFFFE0000
007FFFFFFF8000
01FFFFFFFFC000
03FFFFFFFFF000
07FFFFFFFFF800
0FFFFFFFFFFC00
1FFFFFFFFFFE00
3FFFFFFFFFFE00
3FFFFFFFFFFF00
7FFFFFFFFFFF00
7FFFFFFFFFFF80
FFFFFFFFFFFF80
FFFFFFFFFFFF80
FFFFFFFFFFFF80
FFFFFFFFFFFF80
FFFFFFFFFFFF80
FFFFFFFFFFFF80
7FFFFFFFFFFF80
7FFFFFFFFFFF00
3FFFFFFFFFFF00
3FFFFFFFFFFE00
1FFFFFFFFFFE00
0FFFFFFFFFFC00
07FFFFFFFFF800
03FFFFFFFFF000
01FFFFFFFFE000
007FFFFFFF8000
001FFFFFFE0000
0003FFFFF80000
00007FFFC00000
0000007F000000
0000003F000000
0000001F800000
0000000F800000
00000003C00000
00000000780000
ENDCHAR
STARTCHAR 0076
ENCODING 118
SWIDTH 972 0
DWIDTH 50 0
BBX 49 42 0 -5
BITMAP
1FFFFFFFFFFE00
7FFFFFFFFFFF80
FFFFFFFFFFFF80
FFFFFFFFFFFF80
FFFFFFFFFFFF80
FFFFFFFFFFFF80
FFFFFFFFFFFF80
FFFFFFFFFFFF80
FFFFFFFFFFFF80
FFFFFFFFFFFF80
FFFFFFFFFFFF80
FFFFFFFFFFFF80
FFFFFFFFFFFF80
FFFFFFFFFFFF80
FFFFFFFFFFFF80
FFFFFFFFFFFF80
FFFFFFFFFFFF80
FFFFFFFFFFFF80
FFFFFFFFFFFF80
FFFFFFFFFFFF80
FFFFFFFFFFFF80
FFFFFFFFFFFF80
FFFFFFFFFFFF80
FFFFFFFFFFFF80
FFFFFFFFFFFF80
FFFFFFFFFFFF80
FFFFFFFFFFFF80
FFFFFFFFFFFF80
FFFFFFFFFFFF80
FFFFFFFFFFFF80
7FFFFFFFFFFF80
3FFFFFFFFFFF00
000003F8000000
000001F8000000
000000FC000000
0000003C000000
0000001E000000
0000000E000000
00000006000000
00000003000000
00000001000000
00000000800000
ENDCHAR
STARTCHAR 0077
ENCODING 119
SWIDTH 972 0
DWIDTH 50 0
BBX 49 49 0 -8
BITMAP
000000C0000000
000003F0000000
000007F8000000
00000FF8000000
00000FFC000000
00000FFC000000
00780FFC078000
00FC3FFC1FC000
01FEFFFF3FE000
03FFFFFFFFE000
03FFFFFFFFF000
03FFFFFFFFF000
03FFFFFFFFE000
01FFFFFFFFE000
00FFFFFFFFC000
007FFFFFFF8000
00FFFFFFFF0000
00FFFC0FFF0000
01FFF003FF0000
01FFE001FF8000
1FFFC001FFFC00
3FFFC000FFFF00
7FFF8000FFFF80
7FFF80007FFF80
FFFF80007FFF80
FFFF80007FFF80
7FFF80007FFF80
7FFF8000FFFF80
3FFFC000FFFF00
0FFFE001FFFC00
00FFE003FF0000
00FFF807FF0000
007FFE1FFE0000
007FFFFFFF0000
00FFFFFFFF8000
01FFFFFFFFC000
01FFFFFFFFE000
03FFFFFFFFE000
03FFFFFFFFF000
03FFFFFF7FF000
03FF3FFC3FE000
01FE0FFC1FE000
00FC0FFC0FC000
00300FFC020000
00000FFC000000
00000FFC000000
00000FF8000000
000007F8000000
000003F0000000
ENDCHAR
STARTCHAR 0078
ENCODING 120
SWIDTH 972 0
DWIDTH 50 0
BBX 49 41 0 -4
BITMAP
001C0000000000
073C0000000000
0F3C0000000000
0FFC0000000000
07FEE000000000
07FFE000000000
7FFFE000000000
FF0FE000000000
FE07C00E000000
7E07C01F000000
0E07E03F07C000
0E07F03F87E000
3F0FF03FEFE000
7FFFF03FFFE000
7FFF807FFFE000
3BFF1FFFFFC000
03FF3FFFFF8000
03CF3FFFFFC000
03C73FFFFFFF00
01803FFE1FFF80
00001FF80FFF80
00000FF007FF80
00000FF003FF80
00000FE003FF00
00000FE003FC00
00003FE003F000
00007FF003F000
0000FFF007F000
0000FFF807FC00
00007FFC1FFE00
00007FFFFFFF00
000013FFFFFF00
000001FFFFFF00
000000FFFF7E00
000001FFFE1C00
000001FFFE0000
000001FC7E0000
000001F87F0000
000001F87F0000
000000607E0000
000000003C0000
ENDCHAR
STARTCHAR 0079
ENCODING 121
SWIDTH 972 0
DWIDTH 50 0
BBX 49 44 0 -5
BITMAP
00007E00000000
0003FFC0038000
0007FFF00FF000
001FFFF83FFC00
003FFF3E3FFE00
007FF0007F8000
007FF0007F8000
00FFE0007F8080
01FFF0007FFF80
01FFF000FFFF00
03FFF800FFFE00
07FFFC00FFFC00
3FF7FE01FFF800
7FC1FF03FFF000
FFC07F83FFC000
7FC03FC7FFC000
3F801FEFFFC000
1F800FFFFFE000
0F8007FFF00000
030001FFC00000
000001FF800000
000003FF800000
000007FFC00000
00000FFFE00000
00003FFFF00000
00007FFFF80000
0000FFE7FC0000
0001FFC7FE0000
0003FF83FF0000
000FFF01FF8000
001FFE00FFC000
003FFC007FE000
007FF0003FF000
01FFE0001FF800
03FFC0000FFC00
07FF800007FE00
0FFF000007FF00
0FFE000003FF80
1FFC000001FF80
0FF8000000FF00
0FF00000007E00
07E00000003C00
01C00000001800
00000000001000
ENDCHAR
STARTCHAR 007A
ENCODING 122
SWIDTH 972 0
DWIDTH 50 0
BBX 49 49 0 -8
BITMAP
00000002000000
00000004000000
0000000C000000
0000001C000000
0000003C000000
00000078000000
000000F8000000
000001F8000000
000001F8000000
000001F8000000
000003F0000000
000003F0000000
000003F0000000
000003F0000000
000003E0000000
000007E0000000
000007E0000000
000007E0000000
000007E0000000
00000FC0000180
00000FC0001F00
00000FC003FE00
03FE0FC03FFC00
0FFF0F87FFF800
1FFF9FFFFFF000
3FFFDFFFFFE000
7F1FFFFFFFC000
7E0FFFFFFC0000
FC0FFFFF800000
FC0FFFF8000000
FC3FFF80000000
7FFFFF00000000
7FFF3F80000000
3FFE7FC0000000
1FFCFFE0000000
0FF1FFE0000000
0003FFF0000000
0003F1F0000000
0003E1F0000000
0007E1F0000000
0007E1F0000000
0007E1F0000000
0007E3E0000000
0007F7E0000000
0003FFE0000000
0003FFC0000000
0001FF80000000
0000FF00000000
00007E00000000
ENDCHAR
STARTCHAR 007B
ENCODING 123
SWIDTH 972 0
DWIDTH 50 0
BBX 49 47 0 -7
BITMAP
000000007FC000
000000007F0000
000000007E0000
000000003F8000
000000003FC000
000000003FE000
0000000017F000
0000000013F000
0000000011F800
0000000000FC00
00000000007C00
00000000003E00
00000000003E00
00000000001F00
00000000001F00
00000000000F00
00000000000F80
00000000000F80
00000000000780
00000000000780
00000000000780
00000000000780
F8000000000780
F8000000000780
F8000000000780
78000000000780
78000000000780
78000000000F80
7C000000000F80
7C000000000F00
3C000000001F00
3E000000001F00
1E000000003E00
1F000000003E00
0F800000007C00
0FC0000000FC00
07C0000001F800
03F0000003F000
03F8000007E000
01FC00001FE000
00FF00003F8000
007FE001FF0000
001FFFFFFE0000
000FFFFFF80000
0003FFFFE00000
00007FFF800000
000007F8000000
ENDCHAR
STARTCHAR 007C
ENCODING 124
SWIDTH 972 0
DWIDTH 50 0
BBX 49 46 0 -7
BITMAP
00FF8000000000
003F0000000000
007F0000000000
00FF0000000000
01FE0000000000
03FE0000000000
07E20000000000
07C20000000000
0F800000000000
1F800000000000
1F000000000000
3E000000000000
3E000000000000
3C000000000000
7C000000000000
7C000000000000
78000000000000
78000000000000
F8000000000000
F8000000000000
F8000000000000
F8000000000780
F8000000000780
F8000000000780
78000000000780
78000000000780
78000000000F80
7C000000000F80
7C000000000F00
3C000000001F00
3E000000001F00
3E000000003E00
1F000000003E00
1F800000007C00
0F80000000FC00
07C0000001F800
07E0000003F000
03F8000007E000
01FC00000FE000
00FF00003FC000
007FC001FF8000
001FFF3FFE0000
000FFFFFFC0000
0003FFFFF00000
0000FFFF800000
00000FFC000000
ENDCHAR
STARTCHAR 007D
ENCODING 125
SWIDTH 486 0
DWIDTH 25 0
BBX 0 0 0 0
BITMAP
ENDCHAR
STARTCHAR 007E
ENCODING 126
SWIDTH 486 0
DWIDTH 25 0
BBX 0 0 0 0
BITMAP
ENDCHAR
STARTCHAR 00A0
ENCODING 160
SWIDTH 252 0
DWIDTH 13 0
BBX 0 0 0 0
BITMAP
ENDCHAR
STARTCHAR 00A1
ENCODING 161
SWIDTH 330 0
DWIDTH 17 0
BBX 0 0 0 0
BITMAP
ENDCHAR
STARTCHAR 00A2
ENCODING 162
SWIDTH 544 0
DWIDTH 28 0
BBX 0 0 0 0
BITMAP
ENDCHAR
STARTCHAR 00A3
ENCODING 163
SWIDTH 486 0
DWIDTH 25 0
BBX 0 0 0 0
BITMAP
ENDCHAR
STARTCHAR 00A4
ENCODING 164
SWIDTH 486 0
DWIDTH 25 0
BBX 0 0 0 0
BITMAP
ENDCHAR
STARTCHAR 00A5
ENCODING 165
SWIDTH 603 0
DWIDTH 31 0
BBX 0 0 0 0
BITMAP
ENDCHAR
STARTCHAR 00A6
ENCODING 166
SWIDTH 486 0
DWIDTH 25 0
BBX 0 0 0 0
BITMAP
ENDCHAR
STARTCHAR 00A7
ENCODING 167
SWIDTH 486 0
DWIDTH 25 0
BBX 0 0 0 0
BITMAP
ENDCHAR
STARTCHAR 00A8
ENCODING 168
SWIDTH 505 0
DWIDTH 26 0
BBX 0 0 0 0
BITMAP
ENDCHAR
STARTCHAR 00A9
ENCODING 169
SWIDTH 817 0
DWIDTH 42 0
BBX 0 0 0 0
BITMAP
ENDCHAR
STARTCHAR 00AA
ENCODING 170
SWIDTH 311 0
DWIDTH 16 0
BBX 0 0 0 0
BITMAP
ENDCHAR
STARTCHAR 00AB
ENCODING 171
SWIDTH 467 0
DWIDTH 24 0
BBX 0 0 0 0
BITMAP
ENDCHAR
STARTCHAR 00AC
ENCODING 172
SWIDTH 486 0
DWIDTH 25 0
BBX 0 0 0 0
BITMAP
ENDCHAR
STARTCHAR 00AD
ENCODING 173
SWIDTH 972 0
DWIDTH 50 0
BBX 49 49 0 -8
BITMAP
000003F0000000
00007FFF800000
0001FFFFE00000
0007FE3FF80000
001FC000FE0000
003F00003F0000
00FC00000F8000
01F0000003C000
03E0000001E000
03E0000080F000
07F00000C07800
0F380001C03C00
0E1C0003C03C00
1E0E0007C01E00
1C07000FC00E00
3C03801FC00F00
3801C03FC00700
7800207FC00700
700000FFC00780
7000FFFFC00380
7000FFFFC00380
7000FFFFC00380
F000FFFFC00380
F000FFFFC00380
E000FFFFC00380
F000FFFFC00380
F000FFFFC00380
7000FFFFC00380
7000FFFFC00380
7000FFFFC00380
7000FFFFC00780
7800007FC00700
3800003FC00700
3800001FC00F00
3C00000FC80E00
1C000007C81E00
1E000003CC1C00
0F000001CE3C00
07800001C77800
07800000C3F000
03C0000001F000
01F0000003E000
00F8000007C000
007E00001F8000
003F80007E0000
000FF003FC0000
0007FFFFF00000
0000FFFFC00000
00001FFE000000
ENDCHAR
STARTCHAR 00AE
ENCODING 174
SWIDTH 817 0
DWIDTH 42 0
BBX 0 0 0 0
BITMAP
ENDCHAR
STARTCHAR 00AF
ENCODING 175
SWIDTH 330 0
DWIDTH 17 0
BBX 0 0 0 0
BITMAP
ENDCHAR
STARTCHAR 00B0
ENCODING 176
SWIDTH 330 0
DWIDTH 17 0
BBX 0 0 0 0
BITMAP
ENDCHAR
STARTCHAR 00B1
ENCODING 177
SWIDTH 486 0
DWIDTH 25 0
BBX 0 0 0 0
BITMAP
ENDCHAR
STARTCHAR 00B2
ENCODING 178
SWIDTH 486 0
DWIDTH 25 0
BBX 0 0 0 0
BITMAP
ENDCHAR
STARTCHAR 00B3
ENCODING 179
SWIDTH 486 0
DWIDTH 25 0
BBX 0 0 0 0
BITMAP
ENDCHAR
STARTCHAR 00B4
ENCODING 180
SWIDTH 505 0
DWIDTH 26 0
BBX 0 0 0 0
BITMAP
ENDCHAR
STARTCHAR 00B5
ENCODING 181
SWIDTH 564 0
DWIDTH 29 0
BBX 0 0 0 0
BITMAP
ENDCHAR
STARTCHAR 00B6
ENCODING 182
SWIDTH 505 0
DWIDTH 26 0
BBX 0 0 0 0
BITMAP
ENDCHAR
STARTCHAR 00B7
ENCODING 183
SWIDTH 252 0
DWIDTH 13 0
BBX 0 0 0 0
BITMAP
ENDCHAR
STARTCHAR 00B8
ENCODING 184
SWIDTH 505 0
DWIDTH 26 0
BBX 0 0 0 0
BITMAP
ENDCHAR
STARTCHAR 00B9
ENCODING 185
SWIDTH 486 0
DWIDTH 25 0
BBX 0 0 0 0
BITMAP
ENDCHAR
STARTCHAR 00BA
ENCODING 186
SWIDTH 350 0
DWIDTH 18 0
BBX 0 0 0 0
BITMAP
ENDCHAR
STARTCHAR 00BB
ENCODING 187
SWIDTH 467 0
DWIDTH 24 0
BBX 0 0 0 0
BITMAP
ENDCHAR
STARTCHAR 00BC
ENCODING 188
SWIDTH 836 0
DWIDTH 43 0
BBX 0 0 0 0
BITMAP
ENDCHAR
STARTCHAR 00BD
ENCODING 189
SWIDTH 953 0
DWIDTH 49 0
BBX 0 0 0 0
BITMAP
ENDCHAR
STARTCHAR 00BE
ENCODING 190
SWIDTH 836 0
DWIDTH 43 0
BBX 0 0 0 0
BITMAP
ENDCHAR
STARTCHAR 00BF
ENCODING 191
SWIDTH 369 0
DWIDTH 19 0
BBX 0 0 0 0
BITMAP
ENDCHAR
STARTCHAR 00C0
ENCODING 192
SWIDTH 739 0
DWIDTH 38 0
BBX 0 0 0 0
BITMAP
ENDCHAR
STARTCHAR 00C1
ENCODING 193
SWIDTH 739 0
DWIDTH 38 0
BBX 0 0 0 0
BITMAP
ENDCHAR
STARTCHAR 00C2
ENCODING 194
SWIDTH 739 0
DWIDTH 38 0
BBX 0 0 0 0
BITMAP
ENDCHAR
STARTCHAR 00C3
ENCODING 195
SWIDTH 739 0
DWIDTH 38 0
BBX 0 0 0 0
BITMAP
ENDCHAR
STARTCHAR 00C4
ENCODING 196
SWIDTH 739 0
DWIDTH 38 0
BBX 0 0 0 0
BITMAP
ENDCHAR
STARTCHAR 00C5
ENCODING 197
SWIDTH 739 0
DWIDTH 38 0
BBX 0 0 0 0
BITMAP
ENDCHAR
STARTCHAR 00C6
ENCODING 198
SWIDTH 1031 0
DWIDTH 53 0
BBX 0 0 0 0
BITMAP
ENDCHAR
STARTCHAR 00C7
ENCODING 199
SWIDTH 681 0
DWIDTH 35 0
BBX 0 0 0 0
BITMAP
ENDCHAR
STARTCHAR 00C8
ENCODING 200
SWIDTH 564 0
DWIDTH 29 0
BBX 0 0 0 0
BITMAP
ENDCHAR
STARTCHAR 00C9
ENCODING 201
SWIDTH 564 0
DWIDTH 29 0
BBX 0 0 0 0
BITMAP
ENDCHAR
STARTCHAR 00CA
ENCODING 202
SWIDTH 564 0
DWIDTH 29 0
BBX 0 0 0 0
BITMAP
ENDCHAR
STARTCHAR 00CB
ENCODING 203
SWIDTH 564 0
DWIDTH 29 0
BBX 0 0 0 0
BITMAP
ENDCHAR
STARTCHAR 00CC
ENCODING 204
SWIDTH 311 0
DWIDTH 16 0
BBX 0 0 0 0
BITMAP
ENDCHAR
STARTCHAR 00CD
ENCODING 205
SWIDTH 311 0
DWIDTH 16 0
BBX 0 0 0 0
BITMAP
ENDCHAR
STARTCHAR 00CE
ENCODING 206
SWIDTH 311 0
DWIDTH 16 0
BBX 0 0 0 0
BITMAP
ENDCHAR
STARTCHAR 00CF
ENCODING 207
SWIDTH 311 0
DWIDTH 16 0
BBX 0 0 0 0
BITMAP
ENDCHAR
STARTCHAR 00D0
ENCODING 208
SWIDTH 739 0
DWIDTH 38 0
BBX 0 0 0 0
BITMAP
ENDCHAR
STARTCHAR 00D1
ENCODING 209
SWIDTH 758 0
DWIDTH 39 0
BBX 0 0 0 0
BITMAP
ENDCHAR
STARTCHAR 00D2
ENCODING 210
SWIDTH 778 0
DWIDTH 40 0
BBX 0 0 0 0
BITMAP
ENDCHAR
STARTCHAR 00D3
ENCODING 211
SWIDTH 778 0
DWIDTH 40 0
BBX 0 0 0 0
BITMAP
ENDCHAR
STARTCHAR 00D4
ENCODING 212
SWIDTH 778 0
DWIDTH 40 0
BBX 0 0 0 0
BITMAP
ENDCHAR
STARTCHAR 00D5
ENCODING 213
SWIDTH 778 0
DWIDTH 40 0
BBX 0 0 0 0
BITMAP
ENDCHAR
STARTCHAR 00D6
ENCODING 214
SWIDTH 778 0
DWIDTH 40 0
BBX 0 0 0 0
BITMAP
ENDCHAR
STARTCHAR 00D7
ENCODING 215
SWIDTH 486 0
DWIDTH 25 0
BBX 0 0 0 0
BITMAP
ENDCHAR
STARTCHAR 00D8
ENCODING 216
SWIDTH 778 0
DWIDTH 40 0
BBX 0 0 0 0
BITMAP
ENDCHAR
STARTCHAR 00D9
ENCODING 217
SWIDTH 720 0
DWIDTH 37 0
BBX 0 0 0 0
BITMAP
ENDCHAR
STARTCHAR 00DA
ENCODING 218
SWIDTH 720 0
DWIDTH 37 0
BBX 0 0 0 0
BITMAP
ENDCHAR
STARTCHAR 00DB
ENCODING 219
SWIDTH 720 0
DWIDTH 37 0
BBX 0 0 0 0
BITMAP
ENDCHAR
STARTCHAR 00DC
ENCODING 220
SWIDTH 720 0
DWIDTH 37 0
BBX 0 0 0 0
BITMAP
ENDCHAR
STARTCHAR 00DD
ENCODING 221
SWIDTH 603 0
DWIDTH 31 0
BBX 0 0 0 0
BITMAP
ENDCHAR
STARTCHAR 00DE
ENCODING 222
SWIDTH 544 0
DWIDTH 28 0
BBX 0 0 0 0
BITMAP
ENDCHAR
STARTCHAR 00DF
ENCODING 223
SWIDTH 603 0
DWIDTH 31 0
BBX 0 0 0 0
BITMAP
ENDCHAR
STARTCHAR 00E0
ENCODING 224
SWIDTH 447 0
DWIDTH 23 0
BBX 0 0 0 0
BITMAP
ENDCHAR
STARTCHAR 00E1
ENCODING 225
SWIDTH 447 0
DWIDTH 23 0
BBX 0 0 0 0
BITMAP
ENDCHAR
STARTCHAR 00E2
ENCODING 226
SWIDTH 447 0
DWIDTH 23 0
BBX 0 0 0 0
BITMAP
ENDCHAR
STARTCHAR 00E3
ENCODING 227
SWIDTH 447 0
DWIDTH 23 0
BBX 0 0 0 0
BITMAP
ENDCHAR
STARTCHAR 00E4
ENCODING 228
SWIDTH 447 0
DWIDTH 23 0
BBX 0 0 0 0
BITMAP
ENDCHAR
STARTCHAR 00E5
ENCODING 229
SWIDTH 447 0
DWIDTH 23 0
BBX 0 0 0 0
BITMAP
ENDCHAR
STARTCHAR 00E6
ENCODING 230
SWIDTH 700 0
DWIDTH 36 0
BBX 0 0 0 0
BITMAP
ENDCHAR
STARTCHAR 00E7
ENCODING 231
SWIDTH 447 0
DWIDTH 23 0
BBX 0 0 0 0
BITMAP
ENDCHAR
STARTCHAR 00E8
ENCODING 232
SWIDTH 447 0
DWIDTH 23 0
BBX 0 0 0 0
BITMAP
ENDCHAR
STARTCHAR 00E9
ENCODING 233
SWIDTH 447 0
DWIDTH 23 0
BBX 0 0 0 0
BITMAP
ENDCHAR
STARTCHAR 00EA
ENCODING 234
SWIDTH 447 0
DWIDTH 23 0
BBX 0 0 0 0
BITMAP
ENDCHAR
STARTCHAR 00EB
ENCODING 235
SWIDTH 447 0
DWIDTH 23 0
BBX 0 0 0 0
BITMAP
ENDCHAR
STARTCHAR 00EC
ENCODING 236
SWIDTH 252 0
DWIDTH 13 0
BBX 0 0 0 0
BITMAP
ENDCHAR
STARTCHAR 00ED
ENCODING 237
SWIDTH 252 0
DWIDTH 13 0
BBX 0 0 0 0
BITMAP
ENDCHAR
STARTCHAR 00EE
ENCODING 238
SWIDTH 252 0
DWIDTH 13 0
BBX 0 0 0 0
BITMAP
ENDCHAR
STARTCHAR 00EF
ENCODING 239
SWIDTH 252 0
DWIDTH 13 0
BBX 0 0 0 0
BITMAP
ENDCHAR
STARTCHAR 00F0
ENCODING 240
SWIDTH 544 0
DWIDTH 28 0
BBX 0 0 0 0
BITMAP
ENDCHAR
STARTCHAR 00F1
ENCODING 241
SWIDTH 544 0
DWIDTH 28 0
BBX 0 0 0 0
BITMAP
ENDCHAR
STARTCHAR 00F2
ENCODING 242
SWIDTH 486 0
DWIDTH 25 0
BBX 0 0 0 0
BITMAP
ENDCHAR
STARTCHAR 00F3
ENCODING 243
SWIDTH 486 0
DWIDTH 25 0
BBX 0 0 0 0
BITMAP
ENDCHAR
STARTCHAR 00F4
ENCODING 244
SWIDTH 486 0
DWIDTH 25 0
BBX 0 0 0 0
BITMAP
ENDCHAR
STARTCHAR 00F5
ENCODING 245
SWIDTH 486 0
DWIDTH 25 0
BBX 0 0 0 0
BITMAP
ENDCHAR
STARTCHAR 00F6
ENCODING 246
SWIDTH 486 0
DWIDTH 25 0
BBX 0 0 0 0
BITMAP
ENDCHAR
STARTCHAR 00F7
ENCODING 247
SWIDTH 486 0
DWIDTH 25 0
BBX 0 0 0 0
BITMAP
ENDCHAR
STARTCHAR 00F8
ENCODING 248
SWIDTH 486 0
DWIDTH 25 0
BBX 0 0 0 0
BITMAP
ENDCHAR
STARTCHAR 00F9
ENCODING 249
SWIDTH 505 0
DWIDTH 26 0
BBX 0 0 0 0
BITMAP
ENDCHAR
STARTCHAR 00FA
ENCODING 250
SWIDTH 505 0
DWIDTH 26 0
BBX 0 0 0 0
BITMAP
ENDCHAR
STARTCHAR 00FB
ENCODING 251
SWIDTH 505 0
DWIDTH 26 0
BBX 0 0 0 0
BITMAP
ENDCHAR
STARTCHAR 00FC
ENCODING 252
SWIDTH 505 0
DWIDTH 26 0
BBX 0 0 0 0
BITMAP
ENDCHAR
STARTCHAR 00FD
ENCODING 253
SWIDTH 428 0
DWIDTH 22 0
BBX 0 0 0 0
BITMAP
ENDCHAR
STARTCHAR 00FE
ENCODING 254
SWIDTH 486 0
DWIDTH 25 0
BBX 0 0 0 0
BITMAP
ENDCHAR
STARTCHAR 00FF
ENCODING 255
SWIDTH 428 0
DWIDTH 22 0
BBX 0 0 0 0
BITMAP
ENDCHAR
STARTCHAR 0131
ENCODING 305
SWIDTH 252 0
DWIDTH 13 0
BBX 0 0 0 0
BITMAP
ENDCHAR
STARTCHAR 02C6
ENCODING 710
SWIDTH 505 0
DWIDTH 26 0
BBX 0 0 0 0
BITMAP
ENDCHAR
STARTCHAR 02C7
ENCODING 711
SWIDTH 505 0
DWIDTH 26 0
BBX 0 0 0 0
BITMAP
ENDCHAR
STARTCHAR 02C9
ENCODING 713
SWIDTH 505 0
DWIDTH 26 0
BBX 0 0 0 0
BITMAP
ENDCHAR
STARTCHAR 02D8
ENCODING 728
SWIDTH 505 0
DWIDTH 26 0
BBX 0 0 0 0
BITMAP
ENDCHAR
STARTCHAR 02D9
ENCODING 729
SWIDTH 505 0
DWIDTH 26 0
BBX 0 0 0 0
BITMAP
ENDCHAR
STARTCHAR 02DA
ENCODING 730
SWIDTH 505 0
DWIDTH 26 0
BBX 0 0 0 0
BITMAP
ENDCHAR
STARTCHAR 02DB
ENCODING 731
SWIDTH 505 0
DWIDTH 26 0
BBX 0 0 0 0
BITMAP
ENDCHAR
STARTCHAR 02DC
ENCODING 732
SWIDTH 505 0
DWIDTH 26 0
BBX 0 0 0 0
BITMAP
ENDCHAR
STARTCHAR 02DD
ENCODING 733
SWIDTH 505 0
DWIDTH 26 0
BBX 0 0 0 0
BITMAP
ENDCHAR
STARTCHAR 037E
ENCODING 894
SWIDTH 972 0
DWIDTH 50 0
BBX 50 49 0 -8
BITMAP
000001E0000000
000001E0000000
000001E0000000
000001E0000000
000001E0000000
000001E0000000
000001E0000000
000001E0000000
000001E0000000
000001E0000000
000001E0000000
000001E0000000
000001E0000000
000001E0000000
000001E0000000
000001E0000000
000001E0000000
000001E0000000
000001E0000000
000001E0000000
000001E0000000
000001E0000000
000001E0000000
FFFFFFFFFFFFC0
FFFFFFFFFFFFC0
FFFFFFFFFFFFC0
FFFFFFFFFFFFC0
000001E0000000
000001E0000000
000001E0000000
000001E0000000
000001E0000000
000001E0000000
000001E0000000
000001E0000000
000001E0000000
000001E0000000
000001E0000000
000001E0000000
000001E0000000
000001E0000000
000001E0000000
000001E0000000
000001E0000000
000001E0000000
000001E0000000
000001E0000000
000001E0000000
000001E0000000
ENDCHAR
STARTCHAR 2013
ENCODING 8211
SWIDTH 544 0
DWIDTH 28 0
BBX 0 0 0 0
BITMAP
ENDCHAR
STARTCHAR 2014
ENCODING 8212
SWIDTH 992 0
DWIDTH 51 0
BBX 0 0 0 0
BITMAP
ENDCHAR
STARTCHAR 2018
ENCODING 8216
SWIDTH 272 0
DWIDTH 14 0
BBX 0 0 0 0
BITMAP
ENDCHAR
STARTCHAR 2019
ENCODING 8217
SWIDTH 272 0
DWIDTH 14 0
BBX 0 0 0 0
BITMAP
ENDCHAR
STARTCHAR 201A
ENCODING 8218
SWIDTH 272 0
DWIDTH 14 0
BBX 0 0 0 0
BITMAP
ENDCHAR
STARTCHAR 201C
ENCODING 8220
SWIDTH 447 0
DWIDTH 23 0
BBX 0 0 0 0
BITMAP
ENDCHAR
STARTCHAR 201D
ENCODING 8221
SWIDTH 447 0
DWIDTH 23 0
BBX 0 0 0 0
BITMAP
ENDCHAR
STARTCHAR 201E
ENCODING 8222
SWIDTH 447 0
DWIDTH 23 0
BBX 0 0 0 0
BITMAP
ENDCHAR
STARTCHAR 2020
ENCODING 8224
SWIDTH 486 0
DWIDTH 25 0
BBX 0 0 0 0
BITMAP
ENDCHAR
STARTCHAR 2021
ENCODING 8225
SWIDTH 486 0
DWIDTH 25 0
BBX 0 0 0 0
BITMAP
ENDCHAR
STARTCHAR 2022
ENCODING 8226
SWIDTH 505 0
DWIDTH 26 0
BBX 0 0 0 0
BITMAP
ENDCHAR
STARTCHAR 2026
ENCODING 8230
SWIDTH 992 0
DWIDTH 51 0
BBX 0 0 0 0
BITMAP
ENDCHAR
STARTCHAR 2039
ENCODING 8249
SWIDTH 311 0
DWIDTH 16 0
BBX 0 0 0 0
BITMAP
ENDCHAR
STARTCHAR 203A
ENCODING 8250
SWIDTH 311 0
DWIDTH 16 0
BBX 0 0 0 0
BITMAP
ENDCHAR
STARTCHAR 2044
ENCODING 8260
SWIDTH 175 0
DWIDTH 9 0
BBX 0 0 0 0
BITMAP
ENDCHAR
STARTCHAR 20A3
ENCODING 8355
SWIDTH 486 0
DWIDTH 25 0
BBX 0 0 0 0
BITMAP
ENDCHAR
STARTCHAR 20A4
ENCODING 8356
SWIDTH 486 0
DWIDTH 25 0
BBX 0 0 0 0
BITMAP
ENDCHAR
STARTCHAR 20A7
ENCODING 8359
SWIDTH 992 0
DWIDTH 51 0
BBX 0 0 0 0
BITMAP
ENDCHAR
STARTCHAR 20AC
ENCODING 8364
SWIDTH 486 0
DWIDTH 25 0
BBX 0 0 0 0
BITMAP
ENDCHAR
STARTCHAR 2116
ENCODING 8470
SWIDTH 1109 0
DWIDTH 57 0
BBX 0 0 0 0
BITMAP
ENDCHAR
STARTCHAR 2122
ENCODING 8482
SWIDTH 720 0
DWIDTH 37 0
BBX 0 0 0 0
BITMAP
ENDCHAR
STARTCHAR 2202
ENCODING 8706
SWIDTH 486 0
DWIDTH 25 0
BBX 0 0 0 0
BITMAP
ENDCHAR
STARTCHAR 2206
ENCODING 8710
SWIDTH 525 0
DWIDTH 27 0
BBX 0 0 0 0
BITMAP
ENDCHAR
STARTCHAR 220F
ENCODING 8719
SWIDTH 739 0
DWIDTH 38 0
BBX 0 0 0 0
BITMAP
ENDCHAR
STARTCHAR 2211
ENCODING 8721
SWIDTH 583 0
DWIDTH 30 0
BBX 0 0 0 0
BITMAP
ENDCHAR
STARTCHAR 2212
ENCODING 8722
SWIDTH 486 0
DWIDTH 25 0
BBX 0 0 0 0
BITMAP
ENDCHAR
STARTCHAR 2215
ENCODING 8725
SWIDTH 175 0
DWIDTH 9 0
BBX 0 0 0 0
BITMAP
ENDCHAR
STARTCHAR 2219
ENCODING 8729
SWIDTH 252 0
DWIDTH 13 0
BBX 0 0 0 0
BITMAP
ENDCHAR
STARTCHAR 221A
ENCODING 8730
SWIDTH 486 0
DWIDTH 25 0
BBX 0 0 0 0
BITMAP
ENDCHAR
STARTCHAR 221E
ENCODING 8734
SWIDTH 486 0
DWIDTH 25 0
BBX 0 0 0 0
BITMAP
ENDCHAR
STARTCHAR 222B
ENCODING 8747
SWIDTH 330 0
DWIDTH 17 0
BBX 0 0 0 0
BITMAP
ENDCHAR
STARTCHAR 2248
ENCODING 8776
SWIDTH 486 0
DWIDTH 25 0
BBX 0 0 0 0
BITMAP
ENDCHAR
STARTCHAR 2264
ENCODING 8804
SWIDTH 486 0
DWIDTH 25 0
BBX 0 0 0 0
BITMAP
ENDCHAR
STARTCHAR 2265
ENCODING 8805
SWIDTH 486 0
DWIDTH 25 0
BBX 0 0 0 0
BITMAP
ENDCHAR
STARTCHAR F001
ENCODING 61441
SWIDTH 525 0
DWIDTH 27 0
BBX 0 0 0 0
BITMAP
ENDCHAR
STARTCHAR F002
ENCODING 61442
SWIDTH 525 0
DWIDTH 27 0
BBX 0 0 0 0
BITMAP
ENDCHAR
STARTCHAR FB01
ENCODING 64257
SWIDTH 525 0
DWIDTH 27 0
BBX 0 0 0 0
BITMAP
ENDCHAR
STARTCHAR FB02
ENCODING 64258
SWIDTH 525 0
DWIDTH 27 0
BBX 0 0 0 0
BITMAP
ENDCHAR
ENDFONT
